%TF.GenerationSoftware,KiCad,Pcbnew,(5.1.7)-1*%
%TF.CreationDate,2020-11-16T09:35:31-07:00*%
%TF.ProjectId,RGB Controller,52474220-436f-46e7-9472-6f6c6c65722e,rev?*%
%TF.SameCoordinates,Original*%
%TF.FileFunction,Soldermask,Bot*%
%TF.FilePolarity,Negative*%
%FSLAX46Y46*%
G04 Gerber Fmt 4.6, Leading zero omitted, Abs format (unit mm)*
G04 Created by KiCad (PCBNEW (5.1.7)-1) date 2020-11-16 09:35:31*
%MOMM*%
%LPD*%
G01*
G04 APERTURE LIST*
%ADD10C,2.082800*%
%ADD11C,3.200000*%
%ADD12O,1.700000X1.700000*%
%ADD13R,1.700000X1.700000*%
%ADD14C,3.400000*%
%ADD15C,1.624000*%
%ADD16C,3.987800*%
%ADD17C,2.489200*%
%ADD18C,2.006600*%
G04 APERTURE END LIST*
D10*
%TO.C,B1*%
X140970000Y-63500000D03*
X140970000Y-66040000D03*
X140970000Y-68580000D03*
X140970000Y-71120000D03*
X140970000Y-73660000D03*
X140970000Y-76200000D03*
X140970000Y-78740000D03*
X140970000Y-81280000D03*
X140970000Y-83820000D03*
X140970000Y-86360000D03*
X140970000Y-88900000D03*
X140970000Y-91440000D03*
X125730000Y-91440000D03*
X125730000Y-88900000D03*
X125730000Y-86360000D03*
X125730000Y-83820000D03*
X125730000Y-81280000D03*
X125730000Y-78740000D03*
X125730000Y-76200000D03*
X125730000Y-73660000D03*
X125730000Y-71120000D03*
X125730000Y-68580000D03*
X125730000Y-66040000D03*
X125730000Y-63500000D03*
%TD*%
D11*
%TO.C,REF\u002A\u002A*%
X102489000Y-133553200D03*
%TD*%
%TO.C,REF\u002A\u002A*%
X102489000Y-56946800D03*
%TD*%
%TO.C,REF\u002A\u002A*%
X164211000Y-133553200D03*
%TD*%
%TO.C,REF\u002A\u002A*%
X164211000Y-56946800D03*
%TD*%
D12*
%TO.C,J1*%
X144780000Y-129032000D03*
X147320000Y-129032000D03*
X149860000Y-129032000D03*
X152400000Y-129032000D03*
X154940000Y-129032000D03*
D13*
X157480000Y-129032000D03*
%TD*%
D12*
%TO.C,J2*%
X109093000Y-89408000D03*
X109093000Y-91948000D03*
X109093000Y-94488000D03*
D13*
X109093000Y-97028000D03*
%TD*%
D12*
%TO.C,J3*%
X109093000Y-102108000D03*
X109093000Y-104648000D03*
X109093000Y-107188000D03*
D13*
X109093000Y-109728000D03*
%TD*%
D12*
%TO.C,J4*%
X109093000Y-64008000D03*
X109093000Y-66548000D03*
X109093000Y-69088000D03*
D13*
X109093000Y-71628000D03*
%TD*%
D12*
%TO.C,J5*%
X109093000Y-76708000D03*
X109093000Y-79248000D03*
X109093000Y-81788000D03*
D13*
X109093000Y-84328000D03*
%TD*%
D12*
%TO.C,J6*%
X109093000Y-114808000D03*
X109093000Y-117348000D03*
X109093000Y-119888000D03*
D13*
X109093000Y-122428000D03*
%TD*%
D12*
%TO.C,J7*%
X157607000Y-71628000D03*
X157607000Y-69088000D03*
X157607000Y-66548000D03*
D13*
X157607000Y-64008000D03*
%TD*%
D12*
%TO.C,J8*%
X157607000Y-84328000D03*
X157607000Y-81788000D03*
X157607000Y-79248000D03*
D13*
X157607000Y-76708000D03*
%TD*%
D12*
%TO.C,J9*%
X157607000Y-97028000D03*
X157607000Y-94488000D03*
X157607000Y-91948000D03*
D13*
X157607000Y-89408000D03*
%TD*%
D12*
%TO.C,J10*%
X157607000Y-109728000D03*
X157607000Y-107188000D03*
X157607000Y-104648000D03*
D13*
X157607000Y-102108000D03*
%TD*%
D14*
%TO.C,J11*%
X165485000Y-122939000D03*
X165485000Y-115059000D03*
D15*
X156845000Y-121539000D03*
X156845000Y-116459000D03*
X156845000Y-118999000D03*
%TD*%
D16*
%TO.C,J12*%
X132461000Y-137160000D03*
X122301000Y-137160000D03*
D17*
X137541000Y-129540000D03*
X117221000Y-129540000D03*
D18*
X135001000Y-127000000D03*
X129921000Y-127000000D03*
X124841000Y-127000000D03*
X119761000Y-127000000D03*
%TD*%
M02*
