M48
; DRILL file {KiCad (5.1.7)-1} date 11/16/20 09:35:36
; FORMAT={-:-/ absolute / inch / decimal}
; #@! TF.CreationDate,2020-11-16T09:35:36-07:00
; #@! TF.GenerationSoftware,Kicad,Pcbnew,(5.1.7)-1
; #@! TF.FileFunction,Plated,1,2,PTH
FMAT,2
INCH
T1C0.0157
T2C0.0394
T3C0.0400
T4C0.0429
T5C0.0590
%
G90
G05
T1
X6.14Y-4.94
T2
X4.295Y-3.02
X4.295Y-3.12
X4.295Y-3.22
X4.295Y-3.32
X4.295Y-3.52
X4.295Y-3.62
X4.295Y-3.72
X4.295Y-3.82
X4.295Y-4.02
X4.295Y-4.12
X4.295Y-4.22
X4.295Y-4.32
X6.205Y-3.52
X6.205Y-3.62
X6.205Y-3.72
X6.205Y-3.82
X6.205Y-3.02
X6.205Y-3.12
X6.205Y-3.22
X6.205Y-3.32
X4.295Y-4.52
X4.295Y-4.62
X4.295Y-4.72
X4.295Y-4.82
X5.7Y-5.08
X5.8Y-5.08
X5.9Y-5.08
X6.0Y-5.08
X6.1Y-5.08
X6.2Y-5.08
X4.295Y-2.52
X4.295Y-2.62
X4.295Y-2.72
X4.295Y-2.82
X6.205Y-2.52
X6.205Y-2.62
X6.205Y-2.72
X6.205Y-2.82
X6.205Y-4.02
X6.205Y-4.12
X6.205Y-4.22
X6.205Y-4.32
T3
X4.95Y-2.5
X4.95Y-2.6
X4.95Y-2.7
X4.95Y-2.8
X4.95Y-2.9
X4.95Y-3.0
X4.95Y-3.1
X4.95Y-3.2
X4.95Y-3.3
X4.95Y-3.4
X4.95Y-3.5
X4.95Y-3.6
X5.55Y-2.5
X5.55Y-2.6
X5.55Y-2.7
X5.55Y-2.8
X5.55Y-2.9
X5.55Y-3.0
X5.55Y-3.1
X5.55Y-3.2
X5.55Y-3.3
X5.55Y-3.4
X5.55Y-3.5
X5.55Y-3.6
T4
X6.175Y-4.585
X6.175Y-4.685
X6.175Y-4.785
T5
X4.715Y-5.0
X4.915Y-5.0
X5.115Y-5.0
X5.315Y-5.0
T0
M30
