%TF.GenerationSoftware,KiCad,Pcbnew,(5.1.7)-1*%
%TF.CreationDate,2020-11-16T09:35:31-07:00*%
%TF.ProjectId,RGB Controller,52474220-436f-46e7-9472-6f6c6c65722e,rev?*%
%TF.SameCoordinates,Original*%
%TF.FileFunction,Legend,Top*%
%TF.FilePolarity,Positive*%
%FSLAX46Y46*%
G04 Gerber Fmt 4.6, Leading zero omitted, Abs format (unit mm)*
G04 Created by KiCad (PCBNEW (5.1.7)-1) date 2020-11-16 09:35:31*
%MOMM*%
%LPD*%
G01*
G04 APERTURE LIST*
%ADD10C,0.150000*%
%ADD11C,0.127000*%
%ADD12C,0.120000*%
%ADD13C,0.152400*%
G04 APERTURE END LIST*
D10*
X160456857Y-138231571D02*
X160599714Y-138279190D01*
X160647333Y-138326809D01*
X160694952Y-138422047D01*
X160694952Y-138564904D01*
X160647333Y-138660142D01*
X160599714Y-138707761D01*
X160504476Y-138755380D01*
X160123523Y-138755380D01*
X160123523Y-137755380D01*
X160456857Y-137755380D01*
X160552095Y-137803000D01*
X160599714Y-137850619D01*
X160647333Y-137945857D01*
X160647333Y-138041095D01*
X160599714Y-138136333D01*
X160552095Y-138183952D01*
X160456857Y-138231571D01*
X160123523Y-138231571D01*
X161028285Y-137755380D02*
X161647333Y-137755380D01*
X161314000Y-138136333D01*
X161456857Y-138136333D01*
X161552095Y-138183952D01*
X161599714Y-138231571D01*
X161647333Y-138326809D01*
X161647333Y-138564904D01*
X161599714Y-138660142D01*
X161552095Y-138707761D01*
X161456857Y-138755380D01*
X161171142Y-138755380D01*
X161075904Y-138707761D01*
X161028285Y-138660142D01*
X162409238Y-138231571D02*
X162552095Y-138279190D01*
X162599714Y-138326809D01*
X162647333Y-138422047D01*
X162647333Y-138564904D01*
X162599714Y-138660142D01*
X162552095Y-138707761D01*
X162456857Y-138755380D01*
X162075904Y-138755380D01*
X162075904Y-137755380D01*
X162409238Y-137755380D01*
X162504476Y-137803000D01*
X162552095Y-137850619D01*
X162599714Y-137945857D01*
X162599714Y-138041095D01*
X162552095Y-138136333D01*
X162504476Y-138183952D01*
X162409238Y-138231571D01*
X162075904Y-138231571D01*
X163028285Y-137850619D02*
X163075904Y-137803000D01*
X163171142Y-137755380D01*
X163409238Y-137755380D01*
X163504476Y-137803000D01*
X163552095Y-137850619D01*
X163599714Y-137945857D01*
X163599714Y-138041095D01*
X163552095Y-138183952D01*
X162980666Y-138755380D01*
X163599714Y-138755380D01*
X164361619Y-138231571D02*
X164504476Y-138279190D01*
X164552095Y-138326809D01*
X164599714Y-138422047D01*
X164599714Y-138564904D01*
X164552095Y-138660142D01*
X164504476Y-138707761D01*
X164409238Y-138755380D01*
X164028285Y-138755380D01*
X164028285Y-137755380D01*
X164361619Y-137755380D01*
X164456857Y-137803000D01*
X164504476Y-137850619D01*
X164552095Y-137945857D01*
X164552095Y-138041095D01*
X164504476Y-138136333D01*
X164456857Y-138183952D01*
X164361619Y-138231571D01*
X164028285Y-138231571D01*
X165552095Y-138755380D02*
X164980666Y-138755380D01*
X165266380Y-138755380D02*
X165266380Y-137755380D01*
X165171142Y-137898238D01*
X165075904Y-137993476D01*
X164980666Y-138041095D01*
X106204190Y-138501380D02*
X105632761Y-138501380D01*
X105918476Y-138501380D02*
X105918476Y-137501380D01*
X105823238Y-137644238D01*
X105728000Y-137739476D01*
X105632761Y-137787095D01*
X106585142Y-137596619D02*
X106632761Y-137549000D01*
X106728000Y-137501380D01*
X106966095Y-137501380D01*
X107061333Y-137549000D01*
X107108952Y-137596619D01*
X107156571Y-137691857D01*
X107156571Y-137787095D01*
X107108952Y-137929952D01*
X106537523Y-138501380D01*
X107156571Y-138501380D01*
X107585142Y-138120428D02*
X108347047Y-138120428D01*
X109347047Y-137549000D02*
X109251809Y-137501380D01*
X109108952Y-137501380D01*
X108966095Y-137549000D01*
X108870857Y-137644238D01*
X108823238Y-137739476D01*
X108775619Y-137929952D01*
X108775619Y-138072809D01*
X108823238Y-138263285D01*
X108870857Y-138358523D01*
X108966095Y-138453761D01*
X109108952Y-138501380D01*
X109204190Y-138501380D01*
X109347047Y-138453761D01*
X109394666Y-138406142D01*
X109394666Y-138072809D01*
X109204190Y-138072809D01*
X109823238Y-138120428D02*
X110585142Y-138120428D01*
X111585142Y-137549000D02*
X111489904Y-137501380D01*
X111347047Y-137501380D01*
X111204190Y-137549000D01*
X111108952Y-137644238D01*
X111061333Y-137739476D01*
X111013714Y-137929952D01*
X111013714Y-138072809D01*
X111061333Y-138263285D01*
X111108952Y-138358523D01*
X111204190Y-138453761D01*
X111347047Y-138501380D01*
X111442285Y-138501380D01*
X111585142Y-138453761D01*
X111632761Y-138406142D01*
X111632761Y-138072809D01*
X111442285Y-138072809D01*
X112061333Y-138120428D02*
X112823238Y-138120428D01*
X113775619Y-137501380D02*
X113299428Y-137501380D01*
X113251809Y-137977571D01*
X113299428Y-137929952D01*
X113394666Y-137882333D01*
X113632761Y-137882333D01*
X113728000Y-137929952D01*
X113775619Y-137977571D01*
X113823238Y-138072809D01*
X113823238Y-138310904D01*
X113775619Y-138406142D01*
X113728000Y-138453761D01*
X113632761Y-138501380D01*
X113394666Y-138501380D01*
X113299428Y-138453761D01*
X113251809Y-138406142D01*
X119118000Y-118054571D02*
X119165619Y-117959333D01*
X119165619Y-117816476D01*
X119118000Y-117673619D01*
X119022761Y-117578380D01*
X118927523Y-117530761D01*
X118737047Y-117483142D01*
X118594190Y-117483142D01*
X118403714Y-117530761D01*
X118308476Y-117578380D01*
X118213238Y-117673619D01*
X118165619Y-117816476D01*
X118165619Y-117911714D01*
X118213238Y-118054571D01*
X118260857Y-118102190D01*
X118594190Y-118102190D01*
X118594190Y-117911714D01*
X118165619Y-118435523D02*
X118832285Y-118959333D01*
X118832285Y-118435523D02*
X118165619Y-118959333D01*
X118165619Y-119340285D02*
X119165619Y-119340285D01*
X119165619Y-119578380D01*
X119118000Y-119721238D01*
X119022761Y-119816476D01*
X118927523Y-119864095D01*
X118737047Y-119911714D01*
X118594190Y-119911714D01*
X118403714Y-119864095D01*
X118308476Y-119816476D01*
X118213238Y-119721238D01*
X118165619Y-119578380D01*
X118165619Y-119340285D01*
X119165619Y-120197428D02*
X118165619Y-120530761D01*
X119165619Y-120864095D01*
X119245000Y-105354571D02*
X119292619Y-105259333D01*
X119292619Y-105116476D01*
X119245000Y-104973619D01*
X119149761Y-104878380D01*
X119054523Y-104830761D01*
X118864047Y-104783142D01*
X118721190Y-104783142D01*
X118530714Y-104830761D01*
X118435476Y-104878380D01*
X118340238Y-104973619D01*
X118292619Y-105116476D01*
X118292619Y-105211714D01*
X118340238Y-105354571D01*
X118387857Y-105402190D01*
X118721190Y-105402190D01*
X118721190Y-105211714D01*
X118292619Y-105735523D02*
X118959285Y-106259333D01*
X118959285Y-105735523D02*
X118292619Y-106259333D01*
X118292619Y-106640285D02*
X119292619Y-106640285D01*
X119292619Y-106878380D01*
X119245000Y-107021238D01*
X119149761Y-107116476D01*
X119054523Y-107164095D01*
X118864047Y-107211714D01*
X118721190Y-107211714D01*
X118530714Y-107164095D01*
X118435476Y-107116476D01*
X118340238Y-107021238D01*
X118292619Y-106878380D01*
X118292619Y-106640285D01*
X119292619Y-107497428D02*
X118292619Y-107830761D01*
X119292619Y-108164095D01*
X119118000Y-92527571D02*
X119165619Y-92432333D01*
X119165619Y-92289476D01*
X119118000Y-92146619D01*
X119022761Y-92051380D01*
X118927523Y-92003761D01*
X118737047Y-91956142D01*
X118594190Y-91956142D01*
X118403714Y-92003761D01*
X118308476Y-92051380D01*
X118213238Y-92146619D01*
X118165619Y-92289476D01*
X118165619Y-92384714D01*
X118213238Y-92527571D01*
X118260857Y-92575190D01*
X118594190Y-92575190D01*
X118594190Y-92384714D01*
X118165619Y-92908523D02*
X118832285Y-93432333D01*
X118832285Y-92908523D02*
X118165619Y-93432333D01*
X118165619Y-93813285D02*
X119165619Y-93813285D01*
X119165619Y-94051380D01*
X119118000Y-94194238D01*
X119022761Y-94289476D01*
X118927523Y-94337095D01*
X118737047Y-94384714D01*
X118594190Y-94384714D01*
X118403714Y-94337095D01*
X118308476Y-94289476D01*
X118213238Y-94194238D01*
X118165619Y-94051380D01*
X118165619Y-93813285D01*
X119165619Y-94670428D02*
X118165619Y-95003761D01*
X119165619Y-95337095D01*
X118991000Y-79954571D02*
X119038619Y-79859333D01*
X119038619Y-79716476D01*
X118991000Y-79573619D01*
X118895761Y-79478380D01*
X118800523Y-79430761D01*
X118610047Y-79383142D01*
X118467190Y-79383142D01*
X118276714Y-79430761D01*
X118181476Y-79478380D01*
X118086238Y-79573619D01*
X118038619Y-79716476D01*
X118038619Y-79811714D01*
X118086238Y-79954571D01*
X118133857Y-80002190D01*
X118467190Y-80002190D01*
X118467190Y-79811714D01*
X118038619Y-80335523D02*
X118705285Y-80859333D01*
X118705285Y-80335523D02*
X118038619Y-80859333D01*
X118038619Y-81240285D02*
X119038619Y-81240285D01*
X119038619Y-81478380D01*
X118991000Y-81621238D01*
X118895761Y-81716476D01*
X118800523Y-81764095D01*
X118610047Y-81811714D01*
X118467190Y-81811714D01*
X118276714Y-81764095D01*
X118181476Y-81716476D01*
X118086238Y-81621238D01*
X118038619Y-81478380D01*
X118038619Y-81240285D01*
X119038619Y-82097428D02*
X118038619Y-82430761D01*
X119038619Y-82764095D01*
X119245000Y-67635571D02*
X119292619Y-67540333D01*
X119292619Y-67397476D01*
X119245000Y-67254619D01*
X119149761Y-67159380D01*
X119054523Y-67111761D01*
X118864047Y-67064142D01*
X118721190Y-67064142D01*
X118530714Y-67111761D01*
X118435476Y-67159380D01*
X118340238Y-67254619D01*
X118292619Y-67397476D01*
X118292619Y-67492714D01*
X118340238Y-67635571D01*
X118387857Y-67683190D01*
X118721190Y-67683190D01*
X118721190Y-67492714D01*
X118292619Y-68016523D02*
X118959285Y-68540333D01*
X118959285Y-68016523D02*
X118292619Y-68540333D01*
X118292619Y-68921285D02*
X119292619Y-68921285D01*
X119292619Y-69159380D01*
X119245000Y-69302238D01*
X119149761Y-69397476D01*
X119054523Y-69445095D01*
X118864047Y-69492714D01*
X118721190Y-69492714D01*
X118530714Y-69445095D01*
X118435476Y-69397476D01*
X118340238Y-69302238D01*
X118292619Y-69159380D01*
X118292619Y-68921285D01*
X119292619Y-69778428D02*
X118292619Y-70111761D01*
X119292619Y-70445095D01*
X147201000Y-68127428D02*
X147153380Y-68222666D01*
X147153380Y-68365523D01*
X147201000Y-68508380D01*
X147296238Y-68603619D01*
X147391476Y-68651238D01*
X147581952Y-68698857D01*
X147724809Y-68698857D01*
X147915285Y-68651238D01*
X148010523Y-68603619D01*
X148105761Y-68508380D01*
X148153380Y-68365523D01*
X148153380Y-68270285D01*
X148105761Y-68127428D01*
X148058142Y-68079809D01*
X147724809Y-68079809D01*
X147724809Y-68270285D01*
X148153380Y-67746476D02*
X147486714Y-67222666D01*
X147486714Y-67746476D02*
X148153380Y-67222666D01*
X148153380Y-66841714D02*
X147153380Y-66841714D01*
X147153380Y-66603619D01*
X147201000Y-66460761D01*
X147296238Y-66365523D01*
X147391476Y-66317904D01*
X147581952Y-66270285D01*
X147724809Y-66270285D01*
X147915285Y-66317904D01*
X148010523Y-66365523D01*
X148105761Y-66460761D01*
X148153380Y-66603619D01*
X148153380Y-66841714D01*
X147153380Y-65984571D02*
X148153380Y-65651238D01*
X147153380Y-65317904D01*
X147074000Y-80827428D02*
X147026380Y-80922666D01*
X147026380Y-81065523D01*
X147074000Y-81208380D01*
X147169238Y-81303619D01*
X147264476Y-81351238D01*
X147454952Y-81398857D01*
X147597809Y-81398857D01*
X147788285Y-81351238D01*
X147883523Y-81303619D01*
X147978761Y-81208380D01*
X148026380Y-81065523D01*
X148026380Y-80970285D01*
X147978761Y-80827428D01*
X147931142Y-80779809D01*
X147597809Y-80779809D01*
X147597809Y-80970285D01*
X148026380Y-80446476D02*
X147359714Y-79922666D01*
X147359714Y-80446476D02*
X148026380Y-79922666D01*
X148026380Y-79541714D02*
X147026380Y-79541714D01*
X147026380Y-79303619D01*
X147074000Y-79160761D01*
X147169238Y-79065523D01*
X147264476Y-79017904D01*
X147454952Y-78970285D01*
X147597809Y-78970285D01*
X147788285Y-79017904D01*
X147883523Y-79065523D01*
X147978761Y-79160761D01*
X148026380Y-79303619D01*
X148026380Y-79541714D01*
X147026380Y-78684571D02*
X148026380Y-78351238D01*
X147026380Y-78017904D01*
X146693000Y-93019428D02*
X146645380Y-93114666D01*
X146645380Y-93257523D01*
X146693000Y-93400380D01*
X146788238Y-93495619D01*
X146883476Y-93543238D01*
X147073952Y-93590857D01*
X147216809Y-93590857D01*
X147407285Y-93543238D01*
X147502523Y-93495619D01*
X147597761Y-93400380D01*
X147645380Y-93257523D01*
X147645380Y-93162285D01*
X147597761Y-93019428D01*
X147550142Y-92971809D01*
X147216809Y-92971809D01*
X147216809Y-93162285D01*
X147645380Y-92638476D02*
X146978714Y-92114666D01*
X146978714Y-92638476D02*
X147645380Y-92114666D01*
X147645380Y-91733714D02*
X146645380Y-91733714D01*
X146645380Y-91495619D01*
X146693000Y-91352761D01*
X146788238Y-91257523D01*
X146883476Y-91209904D01*
X147073952Y-91162285D01*
X147216809Y-91162285D01*
X147407285Y-91209904D01*
X147502523Y-91257523D01*
X147597761Y-91352761D01*
X147645380Y-91495619D01*
X147645380Y-91733714D01*
X146645380Y-90876571D02*
X147645380Y-90543238D01*
X146645380Y-90209904D01*
X146185000Y-105592428D02*
X146137380Y-105687666D01*
X146137380Y-105830523D01*
X146185000Y-105973380D01*
X146280238Y-106068619D01*
X146375476Y-106116238D01*
X146565952Y-106163857D01*
X146708809Y-106163857D01*
X146899285Y-106116238D01*
X146994523Y-106068619D01*
X147089761Y-105973380D01*
X147137380Y-105830523D01*
X147137380Y-105735285D01*
X147089761Y-105592428D01*
X147042142Y-105544809D01*
X146708809Y-105544809D01*
X146708809Y-105735285D01*
X147137380Y-105211476D02*
X146470714Y-104687666D01*
X146470714Y-105211476D02*
X147137380Y-104687666D01*
X147137380Y-104306714D02*
X146137380Y-104306714D01*
X146137380Y-104068619D01*
X146185000Y-103925761D01*
X146280238Y-103830523D01*
X146375476Y-103782904D01*
X146565952Y-103735285D01*
X146708809Y-103735285D01*
X146899285Y-103782904D01*
X146994523Y-103830523D01*
X147089761Y-103925761D01*
X147137380Y-104068619D01*
X147137380Y-104306714D01*
X146137380Y-103449571D02*
X147137380Y-103116238D01*
X146137380Y-102782904D01*
X144867380Y-120332333D02*
X145867380Y-119999000D01*
X144867380Y-119665666D01*
X145867380Y-119332333D02*
X144867380Y-119332333D01*
X144867380Y-119094238D01*
X144915000Y-118951380D01*
X145010238Y-118856142D01*
X145105476Y-118808523D01*
X145295952Y-118760904D01*
X145438809Y-118760904D01*
X145629285Y-118808523D01*
X145724523Y-118856142D01*
X145819761Y-118951380D01*
X145867380Y-119094238D01*
X145867380Y-119332333D01*
X144915000Y-117808523D02*
X144867380Y-117903761D01*
X144867380Y-118046619D01*
X144915000Y-118189476D01*
X145010238Y-118284714D01*
X145105476Y-118332333D01*
X145295952Y-118379952D01*
X145438809Y-118379952D01*
X145629285Y-118332333D01*
X145724523Y-118284714D01*
X145819761Y-118189476D01*
X145867380Y-118046619D01*
X145867380Y-117951380D01*
X145819761Y-117808523D01*
X145772142Y-117760904D01*
X145438809Y-117760904D01*
X145438809Y-117951380D01*
X107157000Y-54030571D02*
X107299857Y-54078190D01*
X107347476Y-54125809D01*
X107395095Y-54221047D01*
X107395095Y-54363904D01*
X107347476Y-54459142D01*
X107299857Y-54506761D01*
X107204619Y-54554380D01*
X106823666Y-54554380D01*
X106823666Y-53554380D01*
X107157000Y-53554380D01*
X107252238Y-53602000D01*
X107299857Y-53649619D01*
X107347476Y-53744857D01*
X107347476Y-53840095D01*
X107299857Y-53935333D01*
X107252238Y-53982952D01*
X107157000Y-54030571D01*
X106823666Y-54030571D01*
X107728428Y-53887714D02*
X107966523Y-54554380D01*
X108204619Y-53887714D02*
X107966523Y-54554380D01*
X107871285Y-54792476D01*
X107823666Y-54840095D01*
X107728428Y-54887714D01*
X109252238Y-53554380D02*
X109490333Y-54554380D01*
X109680809Y-53840095D01*
X109871285Y-54554380D01*
X110109380Y-53554380D01*
X110490333Y-54554380D02*
X110490333Y-53887714D01*
X110490333Y-53554380D02*
X110442714Y-53602000D01*
X110490333Y-53649619D01*
X110537952Y-53602000D01*
X110490333Y-53554380D01*
X110490333Y-53649619D01*
X111109380Y-54554380D02*
X111014142Y-54506761D01*
X110966523Y-54411523D01*
X110966523Y-53554380D01*
X111633190Y-54554380D02*
X111537952Y-54506761D01*
X111490333Y-54411523D01*
X111490333Y-53554380D01*
X112014142Y-54554380D02*
X112014142Y-53887714D01*
X112014142Y-53554380D02*
X111966523Y-53602000D01*
X112014142Y-53649619D01*
X112061761Y-53602000D01*
X112014142Y-53554380D01*
X112014142Y-53649619D01*
X112918904Y-54554380D02*
X112918904Y-54030571D01*
X112871285Y-53935333D01*
X112776047Y-53887714D01*
X112585571Y-53887714D01*
X112490333Y-53935333D01*
X112918904Y-54506761D02*
X112823666Y-54554380D01*
X112585571Y-54554380D01*
X112490333Y-54506761D01*
X112442714Y-54411523D01*
X112442714Y-54316285D01*
X112490333Y-54221047D01*
X112585571Y-54173428D01*
X112823666Y-54173428D01*
X112918904Y-54125809D01*
X113395095Y-54554380D02*
X113395095Y-53887714D01*
X113395095Y-53982952D02*
X113442714Y-53935333D01*
X113537952Y-53887714D01*
X113680809Y-53887714D01*
X113776047Y-53935333D01*
X113823666Y-54030571D01*
X113823666Y-54554380D01*
X113823666Y-54030571D02*
X113871285Y-53935333D01*
X113966523Y-53887714D01*
X114109380Y-53887714D01*
X114204619Y-53935333D01*
X114252238Y-54030571D01*
X114252238Y-54554380D01*
X115823666Y-54030571D02*
X115966523Y-54078190D01*
X116014142Y-54125809D01*
X116061761Y-54221047D01*
X116061761Y-54363904D01*
X116014142Y-54459142D01*
X115966523Y-54506761D01*
X115871285Y-54554380D01*
X115490333Y-54554380D01*
X115490333Y-53554380D01*
X115823666Y-53554380D01*
X115918904Y-53602000D01*
X115966523Y-53649619D01*
X116014142Y-53744857D01*
X116014142Y-53840095D01*
X115966523Y-53935333D01*
X115918904Y-53982952D01*
X115823666Y-54030571D01*
X115490333Y-54030571D01*
X116490333Y-54554380D02*
X116490333Y-53887714D01*
X116490333Y-54078190D02*
X116537952Y-53982952D01*
X116585571Y-53935333D01*
X116680809Y-53887714D01*
X116776047Y-53887714D01*
X117252238Y-54554380D02*
X117157000Y-54506761D01*
X117109380Y-54459142D01*
X117061761Y-54363904D01*
X117061761Y-54078190D01*
X117109380Y-53982952D01*
X117157000Y-53935333D01*
X117252238Y-53887714D01*
X117395095Y-53887714D01*
X117490333Y-53935333D01*
X117537952Y-53982952D01*
X117585571Y-54078190D01*
X117585571Y-54363904D01*
X117537952Y-54459142D01*
X117490333Y-54506761D01*
X117395095Y-54554380D01*
X117252238Y-54554380D01*
X117918904Y-53887714D02*
X118109380Y-54554380D01*
X118299857Y-54078190D01*
X118490333Y-54554380D01*
X118680809Y-53887714D01*
X119061761Y-53887714D02*
X119061761Y-54554380D01*
X119061761Y-53982952D02*
X119109380Y-53935333D01*
X119204619Y-53887714D01*
X119347476Y-53887714D01*
X119442714Y-53935333D01*
X119490333Y-54030571D01*
X119490333Y-54554380D01*
X107403380Y-52776380D02*
X107070047Y-52300190D01*
X106831952Y-52776380D02*
X106831952Y-51776380D01*
X107212904Y-51776380D01*
X107308142Y-51824000D01*
X107355761Y-51871619D01*
X107403380Y-51966857D01*
X107403380Y-52109714D01*
X107355761Y-52204952D01*
X107308142Y-52252571D01*
X107212904Y-52300190D01*
X106831952Y-52300190D01*
X108355761Y-51824000D02*
X108260523Y-51776380D01*
X108117666Y-51776380D01*
X107974809Y-51824000D01*
X107879571Y-51919238D01*
X107831952Y-52014476D01*
X107784333Y-52204952D01*
X107784333Y-52347809D01*
X107831952Y-52538285D01*
X107879571Y-52633523D01*
X107974809Y-52728761D01*
X108117666Y-52776380D01*
X108212904Y-52776380D01*
X108355761Y-52728761D01*
X108403380Y-52681142D01*
X108403380Y-52347809D01*
X108212904Y-52347809D01*
X109165285Y-52252571D02*
X109308142Y-52300190D01*
X109355761Y-52347809D01*
X109403380Y-52443047D01*
X109403380Y-52585904D01*
X109355761Y-52681142D01*
X109308142Y-52728761D01*
X109212904Y-52776380D01*
X108831952Y-52776380D01*
X108831952Y-51776380D01*
X109165285Y-51776380D01*
X109260523Y-51824000D01*
X109308142Y-51871619D01*
X109355761Y-51966857D01*
X109355761Y-52062095D01*
X109308142Y-52157333D01*
X109260523Y-52204952D01*
X109165285Y-52252571D01*
X108831952Y-52252571D01*
X111165285Y-52681142D02*
X111117666Y-52728761D01*
X110974809Y-52776380D01*
X110879571Y-52776380D01*
X110736714Y-52728761D01*
X110641476Y-52633523D01*
X110593857Y-52538285D01*
X110546238Y-52347809D01*
X110546238Y-52204952D01*
X110593857Y-52014476D01*
X110641476Y-51919238D01*
X110736714Y-51824000D01*
X110879571Y-51776380D01*
X110974809Y-51776380D01*
X111117666Y-51824000D01*
X111165285Y-51871619D01*
X111736714Y-52776380D02*
X111641476Y-52728761D01*
X111593857Y-52681142D01*
X111546238Y-52585904D01*
X111546238Y-52300190D01*
X111593857Y-52204952D01*
X111641476Y-52157333D01*
X111736714Y-52109714D01*
X111879571Y-52109714D01*
X111974809Y-52157333D01*
X112022428Y-52204952D01*
X112070047Y-52300190D01*
X112070047Y-52585904D01*
X112022428Y-52681142D01*
X111974809Y-52728761D01*
X111879571Y-52776380D01*
X111736714Y-52776380D01*
X112498619Y-52109714D02*
X112498619Y-52776380D01*
X112498619Y-52204952D02*
X112546238Y-52157333D01*
X112641476Y-52109714D01*
X112784333Y-52109714D01*
X112879571Y-52157333D01*
X112927190Y-52252571D01*
X112927190Y-52776380D01*
X113260523Y-52109714D02*
X113641476Y-52109714D01*
X113403380Y-51776380D02*
X113403380Y-52633523D01*
X113450999Y-52728761D01*
X113546238Y-52776380D01*
X113641476Y-52776380D01*
X113974809Y-52776380D02*
X113974809Y-52109714D01*
X113974809Y-52300190D02*
X114022428Y-52204952D01*
X114070047Y-52157333D01*
X114165285Y-52109714D01*
X114260523Y-52109714D01*
X114736714Y-52776380D02*
X114641476Y-52728761D01*
X114593857Y-52681142D01*
X114546238Y-52585904D01*
X114546238Y-52300190D01*
X114593857Y-52204952D01*
X114641476Y-52157333D01*
X114736714Y-52109714D01*
X114879571Y-52109714D01*
X114974809Y-52157333D01*
X115022428Y-52204952D01*
X115070047Y-52300190D01*
X115070047Y-52585904D01*
X115022428Y-52681142D01*
X114974809Y-52728761D01*
X114879571Y-52776380D01*
X114736714Y-52776380D01*
X115641476Y-52776380D02*
X115546238Y-52728761D01*
X115498619Y-52633523D01*
X115498619Y-51776380D01*
X116165285Y-52776380D02*
X116070047Y-52728761D01*
X116022428Y-52633523D01*
X116022428Y-51776380D01*
X116927190Y-52728761D02*
X116831952Y-52776380D01*
X116641476Y-52776380D01*
X116546238Y-52728761D01*
X116498619Y-52633523D01*
X116498619Y-52252571D01*
X116546238Y-52157333D01*
X116641476Y-52109714D01*
X116831952Y-52109714D01*
X116927190Y-52157333D01*
X116974809Y-52252571D01*
X116974809Y-52347809D01*
X116498619Y-52443047D01*
X117403380Y-52776380D02*
X117403380Y-52109714D01*
X117403380Y-52300190D02*
X117451000Y-52204952D01*
X117498619Y-52157333D01*
X117593857Y-52109714D01*
X117689095Y-52109714D01*
X119355761Y-52776380D02*
X119022428Y-52300190D01*
X118784333Y-52776380D02*
X118784333Y-51776380D01*
X119165285Y-51776380D01*
X119260523Y-51824000D01*
X119308142Y-51871619D01*
X119355761Y-51966857D01*
X119355761Y-52109714D01*
X119308142Y-52204952D01*
X119260523Y-52252571D01*
X119165285Y-52300190D01*
X118784333Y-52300190D01*
X119784333Y-52252571D02*
X120117666Y-52252571D01*
X120260523Y-52776380D02*
X119784333Y-52776380D01*
X119784333Y-51776380D01*
X120260523Y-51776380D01*
X120546238Y-51776380D02*
X120879571Y-52776380D01*
X121212904Y-51776380D01*
X122498619Y-51776380D02*
X122593857Y-51776380D01*
X122689095Y-51824000D01*
X122736714Y-51871619D01*
X122784333Y-51966857D01*
X122831952Y-52157333D01*
X122831952Y-52395428D01*
X122784333Y-52585904D01*
X122736714Y-52681142D01*
X122689095Y-52728761D01*
X122593857Y-52776380D01*
X122498619Y-52776380D01*
X122403380Y-52728761D01*
X122355761Y-52681142D01*
X122308142Y-52585904D01*
X122260523Y-52395428D01*
X122260523Y-52157333D01*
X122308142Y-51966857D01*
X122355761Y-51871619D01*
X122403380Y-51824000D01*
X122498619Y-51776380D01*
X123260523Y-52681142D02*
X123308142Y-52728761D01*
X123260523Y-52776380D01*
X123212904Y-52728761D01*
X123260523Y-52681142D01*
X123260523Y-52776380D01*
X124260523Y-52776380D02*
X123689095Y-52776380D01*
X123974809Y-52776380D02*
X123974809Y-51776380D01*
X123879571Y-51919238D01*
X123784333Y-52014476D01*
X123689095Y-52062095D01*
X124641476Y-52490666D02*
X125117666Y-52490666D01*
X124546238Y-52776380D02*
X124879571Y-51776380D01*
X125212904Y-52776380D01*
D11*
%TO.C,B1*%
X124460000Y-59690000D02*
X124460000Y-92710000D01*
X124460000Y-92710000D02*
X142240000Y-92710000D01*
X142240000Y-92710000D02*
X142240000Y-59690000D01*
X142240000Y-59690000D02*
X124460000Y-59690000D01*
X129540000Y-59690000D02*
X129540000Y-58420000D01*
X129540000Y-58420000D02*
X137160000Y-58420000D01*
X137160000Y-58420000D02*
X137160000Y-59690000D01*
D12*
%TO.C,C21*%
X155196000Y-123424733D02*
X155196000Y-123717267D01*
X154176000Y-123424733D02*
X154176000Y-123717267D01*
D13*
%TO.C,C8*%
X113103660Y-101485700D02*
X111264700Y-101485700D01*
X114988340Y-107048300D02*
X116827300Y-107048300D01*
X111264700Y-107048300D02*
X113103660Y-107048300D01*
X111264700Y-101485700D02*
X111264700Y-107048300D01*
X116827300Y-101485700D02*
X114988340Y-101485700D01*
X116827300Y-107048300D02*
X116827300Y-101485700D01*
D12*
%TO.C,C1*%
X144147000Y-68433733D02*
X144147000Y-68726267D01*
X143127000Y-68433733D02*
X143127000Y-68726267D01*
%TO.C,C2*%
X111250000Y-97301267D02*
X111250000Y-97008733D01*
X112270000Y-97301267D02*
X112270000Y-97008733D01*
%TO.C,C3*%
X111250000Y-110001267D02*
X111250000Y-109708733D01*
X112270000Y-110001267D02*
X112270000Y-109708733D01*
%TO.C,C4*%
X111250000Y-71901267D02*
X111250000Y-71608733D01*
X112270000Y-71901267D02*
X112270000Y-71608733D01*
%TO.C,C5*%
X111250000Y-84601267D02*
X111250000Y-84308733D01*
X112270000Y-84601267D02*
X112270000Y-84308733D01*
%TO.C,C6*%
X111250000Y-122701267D02*
X111250000Y-122408733D01*
X112270000Y-122701267D02*
X112270000Y-122408733D01*
D13*
%TO.C,C7*%
X113103660Y-88785700D02*
X111264700Y-88785700D01*
X114988340Y-94348300D02*
X116827300Y-94348300D01*
X111264700Y-94348300D02*
X113103660Y-94348300D01*
X111264700Y-88785700D02*
X111264700Y-94348300D01*
X116827300Y-88785700D02*
X114988340Y-88785700D01*
X116827300Y-94348300D02*
X116827300Y-88785700D01*
%TO.C,C9*%
X113103660Y-63385700D02*
X111264700Y-63385700D01*
X114988340Y-68948300D02*
X116827300Y-68948300D01*
X111264700Y-68948300D02*
X113103660Y-68948300D01*
X111264700Y-63385700D02*
X111264700Y-68948300D01*
X116827300Y-63385700D02*
X114988340Y-63385700D01*
X116827300Y-68948300D02*
X116827300Y-63385700D01*
%TO.C,C10*%
X113103660Y-76085700D02*
X111264700Y-76085700D01*
X114988340Y-81648300D02*
X116827300Y-81648300D01*
X111264700Y-81648300D02*
X113103660Y-81648300D01*
X111264700Y-76085700D02*
X111264700Y-81648300D01*
X116827300Y-76085700D02*
X114988340Y-76085700D01*
X116827300Y-81648300D02*
X116827300Y-76085700D01*
%TO.C,C11*%
X113103660Y-114185700D02*
X111264700Y-114185700D01*
X114988340Y-119748300D02*
X116827300Y-119748300D01*
X111264700Y-119748300D02*
X113103660Y-119748300D01*
X111264700Y-114185700D02*
X111264700Y-119748300D01*
X116827300Y-114185700D02*
X114988340Y-114185700D01*
X116827300Y-119748300D02*
X116827300Y-114185700D01*
D12*
%TO.C,C12*%
X117369000Y-89904835D02*
X117369000Y-89673165D01*
X118089000Y-89904835D02*
X118089000Y-89673165D01*
%TO.C,C13*%
X117369000Y-102604835D02*
X117369000Y-102373165D01*
X118089000Y-102604835D02*
X118089000Y-102373165D01*
%TO.C,C14*%
X117369000Y-64504835D02*
X117369000Y-64273165D01*
X118089000Y-64504835D02*
X118089000Y-64273165D01*
%TO.C,C15*%
X117369000Y-77204835D02*
X117369000Y-76973165D01*
X118089000Y-77204835D02*
X118089000Y-76973165D01*
%TO.C,C16*%
X117369000Y-115304835D02*
X117369000Y-115073165D01*
X118089000Y-115304835D02*
X118089000Y-115073165D01*
%TO.C,C17*%
X155450000Y-63734733D02*
X155450000Y-64027267D01*
X154430000Y-63734733D02*
X154430000Y-64027267D01*
%TO.C,C18*%
X155450000Y-76434733D02*
X155450000Y-76727267D01*
X154430000Y-76434733D02*
X154430000Y-76727267D01*
%TO.C,C19*%
X155450000Y-89134733D02*
X155450000Y-89427267D01*
X154430000Y-89134733D02*
X154430000Y-89427267D01*
%TO.C,C20*%
X155450000Y-101834733D02*
X155450000Y-102127267D01*
X154430000Y-101834733D02*
X154430000Y-102127267D01*
D13*
%TO.C,C22*%
X153596340Y-72250300D02*
X155435300Y-72250300D01*
X151711660Y-66687700D02*
X149872700Y-66687700D01*
X155435300Y-66687700D02*
X153596340Y-66687700D01*
X155435300Y-72250300D02*
X155435300Y-66687700D01*
X149872700Y-72250300D02*
X151711660Y-72250300D01*
X149872700Y-66687700D02*
X149872700Y-72250300D01*
%TO.C,C23*%
X153596340Y-84950300D02*
X155435300Y-84950300D01*
X151711660Y-79387700D02*
X149872700Y-79387700D01*
X155435300Y-79387700D02*
X153596340Y-79387700D01*
X155435300Y-84950300D02*
X155435300Y-79387700D01*
X149872700Y-84950300D02*
X151711660Y-84950300D01*
X149872700Y-79387700D02*
X149872700Y-84950300D01*
%TO.C,C24*%
X153596340Y-97650300D02*
X155435300Y-97650300D01*
X151711660Y-92087700D02*
X149872700Y-92087700D01*
X155435300Y-92087700D02*
X153596340Y-92087700D01*
X155435300Y-97650300D02*
X155435300Y-92087700D01*
X149872700Y-97650300D02*
X151711660Y-97650300D01*
X149872700Y-92087700D02*
X149872700Y-97650300D01*
%TO.C,C25*%
X153596340Y-110350300D02*
X155435300Y-110350300D01*
X151711660Y-104787700D02*
X149872700Y-104787700D01*
X155435300Y-104787700D02*
X153596340Y-104787700D01*
X155435300Y-110350300D02*
X155435300Y-104787700D01*
X149872700Y-110350300D02*
X151711660Y-110350300D01*
X149872700Y-104787700D02*
X149872700Y-110350300D01*
%TO.C,C26*%
X151330660Y-115836700D02*
X149491700Y-115836700D01*
X153215340Y-121399300D02*
X155054300Y-121399300D01*
X149491700Y-121399300D02*
X151330660Y-121399300D01*
X149491700Y-115836700D02*
X149491700Y-121399300D01*
X155054300Y-115836700D02*
X153215340Y-115836700D01*
X155054300Y-121399300D02*
X155054300Y-115836700D01*
D12*
%TO.C,C27*%
X149331000Y-71131165D02*
X149331000Y-71362835D01*
X148611000Y-71131165D02*
X148611000Y-71362835D01*
%TO.C,C28*%
X149331000Y-83831165D02*
X149331000Y-84062835D01*
X148611000Y-83831165D02*
X148611000Y-84062835D01*
%TO.C,C29*%
X149331000Y-96531165D02*
X149331000Y-96762835D01*
X148611000Y-96531165D02*
X148611000Y-96762835D01*
%TO.C,C30*%
X149331000Y-109231165D02*
X149331000Y-109462835D01*
X148611000Y-109231165D02*
X148611000Y-109462835D01*
%TO.C,C31*%
X148230000Y-116955835D02*
X148230000Y-116724165D01*
X148950000Y-116955835D02*
X148950000Y-116724165D01*
D13*
%TO.C,C32*%
X129806700Y-122862340D02*
X129806700Y-124701300D01*
X135369300Y-120977660D02*
X135369300Y-119138700D01*
X135369300Y-124701300D02*
X135369300Y-122862340D01*
X129806700Y-124701300D02*
X135369300Y-124701300D01*
X129806700Y-119138700D02*
X129806700Y-120977660D01*
X135369300Y-119138700D02*
X129806700Y-119138700D01*
D12*
%TO.C,J1*%
X158810000Y-130472000D02*
X143450000Y-130472000D01*
X143450000Y-130472000D02*
X143450000Y-133132000D01*
X143450000Y-133132000D02*
X158810000Y-133132000D01*
X158810000Y-133132000D02*
X158810000Y-130472000D01*
X157860000Y-133132000D02*
X157860000Y-139132000D01*
X157860000Y-139132000D02*
X157100000Y-139132000D01*
X157100000Y-139132000D02*
X157100000Y-133132000D01*
X157800000Y-133132000D02*
X157800000Y-139132000D01*
X157680000Y-133132000D02*
X157680000Y-139132000D01*
X157560000Y-133132000D02*
X157560000Y-139132000D01*
X157440000Y-133132000D02*
X157440000Y-139132000D01*
X157320000Y-133132000D02*
X157320000Y-139132000D01*
X157200000Y-133132000D02*
X157200000Y-139132000D01*
X157860000Y-130142000D02*
X157860000Y-130472000D01*
X157100000Y-130142000D02*
X157100000Y-130472000D01*
X156210000Y-130472000D02*
X156210000Y-133132000D01*
X155320000Y-133132000D02*
X155320000Y-139132000D01*
X155320000Y-139132000D02*
X154560000Y-139132000D01*
X154560000Y-139132000D02*
X154560000Y-133132000D01*
X155320000Y-130074929D02*
X155320000Y-130472000D01*
X154560000Y-130074929D02*
X154560000Y-130472000D01*
X153670000Y-130472000D02*
X153670000Y-133132000D01*
X152780000Y-133132000D02*
X152780000Y-139132000D01*
X152780000Y-139132000D02*
X152020000Y-139132000D01*
X152020000Y-139132000D02*
X152020000Y-133132000D01*
X152780000Y-130074929D02*
X152780000Y-130472000D01*
X152020000Y-130074929D02*
X152020000Y-130472000D01*
X151130000Y-130472000D02*
X151130000Y-133132000D01*
X150240000Y-133132000D02*
X150240000Y-139132000D01*
X150240000Y-139132000D02*
X149480000Y-139132000D01*
X149480000Y-139132000D02*
X149480000Y-133132000D01*
X150240000Y-130074929D02*
X150240000Y-130472000D01*
X149480000Y-130074929D02*
X149480000Y-130472000D01*
X148590000Y-130472000D02*
X148590000Y-133132000D01*
X147700000Y-133132000D02*
X147700000Y-139132000D01*
X147700000Y-139132000D02*
X146940000Y-139132000D01*
X146940000Y-139132000D02*
X146940000Y-133132000D01*
X147700000Y-130074929D02*
X147700000Y-130472000D01*
X146940000Y-130074929D02*
X146940000Y-130472000D01*
X146050000Y-130472000D02*
X146050000Y-133132000D01*
X145160000Y-133132000D02*
X145160000Y-139132000D01*
X145160000Y-139132000D02*
X144400000Y-139132000D01*
X144400000Y-139132000D02*
X144400000Y-133132000D01*
X145160000Y-130074929D02*
X145160000Y-130472000D01*
X144400000Y-130074929D02*
X144400000Y-130472000D01*
X157480000Y-127762000D02*
X158750000Y-127762000D01*
X158750000Y-127762000D02*
X158750000Y-129032000D01*
%TO.C,J2*%
X107653000Y-98358000D02*
X107653000Y-88078000D01*
X107653000Y-88078000D02*
X104993000Y-88078000D01*
X104993000Y-88078000D02*
X104993000Y-98358000D01*
X104993000Y-98358000D02*
X107653000Y-98358000D01*
X104993000Y-97408000D02*
X98993000Y-97408000D01*
X98993000Y-97408000D02*
X98993000Y-96648000D01*
X98993000Y-96648000D02*
X104993000Y-96648000D01*
X104993000Y-97348000D02*
X98993000Y-97348000D01*
X104993000Y-97228000D02*
X98993000Y-97228000D01*
X104993000Y-97108000D02*
X98993000Y-97108000D01*
X104993000Y-96988000D02*
X98993000Y-96988000D01*
X104993000Y-96868000D02*
X98993000Y-96868000D01*
X104993000Y-96748000D02*
X98993000Y-96748000D01*
X107983000Y-97408000D02*
X107653000Y-97408000D01*
X107983000Y-96648000D02*
X107653000Y-96648000D01*
X107653000Y-95758000D02*
X104993000Y-95758000D01*
X104993000Y-94868000D02*
X98993000Y-94868000D01*
X98993000Y-94868000D02*
X98993000Y-94108000D01*
X98993000Y-94108000D02*
X104993000Y-94108000D01*
X108050071Y-94868000D02*
X107653000Y-94868000D01*
X108050071Y-94108000D02*
X107653000Y-94108000D01*
X107653000Y-93218000D02*
X104993000Y-93218000D01*
X104993000Y-92328000D02*
X98993000Y-92328000D01*
X98993000Y-92328000D02*
X98993000Y-91568000D01*
X98993000Y-91568000D02*
X104993000Y-91568000D01*
X108050071Y-92328000D02*
X107653000Y-92328000D01*
X108050071Y-91568000D02*
X107653000Y-91568000D01*
X107653000Y-90678000D02*
X104993000Y-90678000D01*
X104993000Y-89788000D02*
X98993000Y-89788000D01*
X98993000Y-89788000D02*
X98993000Y-89028000D01*
X98993000Y-89028000D02*
X104993000Y-89028000D01*
X108050071Y-89788000D02*
X107653000Y-89788000D01*
X108050071Y-89028000D02*
X107653000Y-89028000D01*
X110363000Y-97028000D02*
X110363000Y-98298000D01*
X110363000Y-98298000D02*
X109093000Y-98298000D01*
%TO.C,J3*%
X107653000Y-111058000D02*
X107653000Y-100778000D01*
X107653000Y-100778000D02*
X104993000Y-100778000D01*
X104993000Y-100778000D02*
X104993000Y-111058000D01*
X104993000Y-111058000D02*
X107653000Y-111058000D01*
X104993000Y-110108000D02*
X98993000Y-110108000D01*
X98993000Y-110108000D02*
X98993000Y-109348000D01*
X98993000Y-109348000D02*
X104993000Y-109348000D01*
X104993000Y-110048000D02*
X98993000Y-110048000D01*
X104993000Y-109928000D02*
X98993000Y-109928000D01*
X104993000Y-109808000D02*
X98993000Y-109808000D01*
X104993000Y-109688000D02*
X98993000Y-109688000D01*
X104993000Y-109568000D02*
X98993000Y-109568000D01*
X104993000Y-109448000D02*
X98993000Y-109448000D01*
X107983000Y-110108000D02*
X107653000Y-110108000D01*
X107983000Y-109348000D02*
X107653000Y-109348000D01*
X107653000Y-108458000D02*
X104993000Y-108458000D01*
X104993000Y-107568000D02*
X98993000Y-107568000D01*
X98993000Y-107568000D02*
X98993000Y-106808000D01*
X98993000Y-106808000D02*
X104993000Y-106808000D01*
X108050071Y-107568000D02*
X107653000Y-107568000D01*
X108050071Y-106808000D02*
X107653000Y-106808000D01*
X107653000Y-105918000D02*
X104993000Y-105918000D01*
X104993000Y-105028000D02*
X98993000Y-105028000D01*
X98993000Y-105028000D02*
X98993000Y-104268000D01*
X98993000Y-104268000D02*
X104993000Y-104268000D01*
X108050071Y-105028000D02*
X107653000Y-105028000D01*
X108050071Y-104268000D02*
X107653000Y-104268000D01*
X107653000Y-103378000D02*
X104993000Y-103378000D01*
X104993000Y-102488000D02*
X98993000Y-102488000D01*
X98993000Y-102488000D02*
X98993000Y-101728000D01*
X98993000Y-101728000D02*
X104993000Y-101728000D01*
X108050071Y-102488000D02*
X107653000Y-102488000D01*
X108050071Y-101728000D02*
X107653000Y-101728000D01*
X110363000Y-109728000D02*
X110363000Y-110998000D01*
X110363000Y-110998000D02*
X109093000Y-110998000D01*
%TO.C,J4*%
X107653000Y-72958000D02*
X107653000Y-62678000D01*
X107653000Y-62678000D02*
X104993000Y-62678000D01*
X104993000Y-62678000D02*
X104993000Y-72958000D01*
X104993000Y-72958000D02*
X107653000Y-72958000D01*
X104993000Y-72008000D02*
X98993000Y-72008000D01*
X98993000Y-72008000D02*
X98993000Y-71248000D01*
X98993000Y-71248000D02*
X104993000Y-71248000D01*
X104993000Y-71948000D02*
X98993000Y-71948000D01*
X104993000Y-71828000D02*
X98993000Y-71828000D01*
X104993000Y-71708000D02*
X98993000Y-71708000D01*
X104993000Y-71588000D02*
X98993000Y-71588000D01*
X104993000Y-71468000D02*
X98993000Y-71468000D01*
X104993000Y-71348000D02*
X98993000Y-71348000D01*
X107983000Y-72008000D02*
X107653000Y-72008000D01*
X107983000Y-71248000D02*
X107653000Y-71248000D01*
X107653000Y-70358000D02*
X104993000Y-70358000D01*
X104993000Y-69468000D02*
X98993000Y-69468000D01*
X98993000Y-69468000D02*
X98993000Y-68708000D01*
X98993000Y-68708000D02*
X104993000Y-68708000D01*
X108050071Y-69468000D02*
X107653000Y-69468000D01*
X108050071Y-68708000D02*
X107653000Y-68708000D01*
X107653000Y-67818000D02*
X104993000Y-67818000D01*
X104993000Y-66928000D02*
X98993000Y-66928000D01*
X98993000Y-66928000D02*
X98993000Y-66168000D01*
X98993000Y-66168000D02*
X104993000Y-66168000D01*
X108050071Y-66928000D02*
X107653000Y-66928000D01*
X108050071Y-66168000D02*
X107653000Y-66168000D01*
X107653000Y-65278000D02*
X104993000Y-65278000D01*
X104993000Y-64388000D02*
X98993000Y-64388000D01*
X98993000Y-64388000D02*
X98993000Y-63628000D01*
X98993000Y-63628000D02*
X104993000Y-63628000D01*
X108050071Y-64388000D02*
X107653000Y-64388000D01*
X108050071Y-63628000D02*
X107653000Y-63628000D01*
X110363000Y-71628000D02*
X110363000Y-72898000D01*
X110363000Y-72898000D02*
X109093000Y-72898000D01*
%TO.C,J5*%
X107653000Y-85658000D02*
X107653000Y-75378000D01*
X107653000Y-75378000D02*
X104993000Y-75378000D01*
X104993000Y-75378000D02*
X104993000Y-85658000D01*
X104993000Y-85658000D02*
X107653000Y-85658000D01*
X104993000Y-84708000D02*
X98993000Y-84708000D01*
X98993000Y-84708000D02*
X98993000Y-83948000D01*
X98993000Y-83948000D02*
X104993000Y-83948000D01*
X104993000Y-84648000D02*
X98993000Y-84648000D01*
X104993000Y-84528000D02*
X98993000Y-84528000D01*
X104993000Y-84408000D02*
X98993000Y-84408000D01*
X104993000Y-84288000D02*
X98993000Y-84288000D01*
X104993000Y-84168000D02*
X98993000Y-84168000D01*
X104993000Y-84048000D02*
X98993000Y-84048000D01*
X107983000Y-84708000D02*
X107653000Y-84708000D01*
X107983000Y-83948000D02*
X107653000Y-83948000D01*
X107653000Y-83058000D02*
X104993000Y-83058000D01*
X104993000Y-82168000D02*
X98993000Y-82168000D01*
X98993000Y-82168000D02*
X98993000Y-81408000D01*
X98993000Y-81408000D02*
X104993000Y-81408000D01*
X108050071Y-82168000D02*
X107653000Y-82168000D01*
X108050071Y-81408000D02*
X107653000Y-81408000D01*
X107653000Y-80518000D02*
X104993000Y-80518000D01*
X104993000Y-79628000D02*
X98993000Y-79628000D01*
X98993000Y-79628000D02*
X98993000Y-78868000D01*
X98993000Y-78868000D02*
X104993000Y-78868000D01*
X108050071Y-79628000D02*
X107653000Y-79628000D01*
X108050071Y-78868000D02*
X107653000Y-78868000D01*
X107653000Y-77978000D02*
X104993000Y-77978000D01*
X104993000Y-77088000D02*
X98993000Y-77088000D01*
X98993000Y-77088000D02*
X98993000Y-76328000D01*
X98993000Y-76328000D02*
X104993000Y-76328000D01*
X108050071Y-77088000D02*
X107653000Y-77088000D01*
X108050071Y-76328000D02*
X107653000Y-76328000D01*
X110363000Y-84328000D02*
X110363000Y-85598000D01*
X110363000Y-85598000D02*
X109093000Y-85598000D01*
%TO.C,J6*%
X107653000Y-123758000D02*
X107653000Y-113478000D01*
X107653000Y-113478000D02*
X104993000Y-113478000D01*
X104993000Y-113478000D02*
X104993000Y-123758000D01*
X104993000Y-123758000D02*
X107653000Y-123758000D01*
X104993000Y-122808000D02*
X98993000Y-122808000D01*
X98993000Y-122808000D02*
X98993000Y-122048000D01*
X98993000Y-122048000D02*
X104993000Y-122048000D01*
X104993000Y-122748000D02*
X98993000Y-122748000D01*
X104993000Y-122628000D02*
X98993000Y-122628000D01*
X104993000Y-122508000D02*
X98993000Y-122508000D01*
X104993000Y-122388000D02*
X98993000Y-122388000D01*
X104993000Y-122268000D02*
X98993000Y-122268000D01*
X104993000Y-122148000D02*
X98993000Y-122148000D01*
X107983000Y-122808000D02*
X107653000Y-122808000D01*
X107983000Y-122048000D02*
X107653000Y-122048000D01*
X107653000Y-121158000D02*
X104993000Y-121158000D01*
X104993000Y-120268000D02*
X98993000Y-120268000D01*
X98993000Y-120268000D02*
X98993000Y-119508000D01*
X98993000Y-119508000D02*
X104993000Y-119508000D01*
X108050071Y-120268000D02*
X107653000Y-120268000D01*
X108050071Y-119508000D02*
X107653000Y-119508000D01*
X107653000Y-118618000D02*
X104993000Y-118618000D01*
X104993000Y-117728000D02*
X98993000Y-117728000D01*
X98993000Y-117728000D02*
X98993000Y-116968000D01*
X98993000Y-116968000D02*
X104993000Y-116968000D01*
X108050071Y-117728000D02*
X107653000Y-117728000D01*
X108050071Y-116968000D02*
X107653000Y-116968000D01*
X107653000Y-116078000D02*
X104993000Y-116078000D01*
X104993000Y-115188000D02*
X98993000Y-115188000D01*
X98993000Y-115188000D02*
X98993000Y-114428000D01*
X98993000Y-114428000D02*
X104993000Y-114428000D01*
X108050071Y-115188000D02*
X107653000Y-115188000D01*
X108050071Y-114428000D02*
X107653000Y-114428000D01*
X110363000Y-122428000D02*
X110363000Y-123698000D01*
X110363000Y-123698000D02*
X109093000Y-123698000D01*
%TO.C,J7*%
X159047000Y-62678000D02*
X159047000Y-72958000D01*
X159047000Y-72958000D02*
X161707000Y-72958000D01*
X161707000Y-72958000D02*
X161707000Y-62678000D01*
X161707000Y-62678000D02*
X159047000Y-62678000D01*
X161707000Y-63628000D02*
X167707000Y-63628000D01*
X167707000Y-63628000D02*
X167707000Y-64388000D01*
X167707000Y-64388000D02*
X161707000Y-64388000D01*
X161707000Y-63688000D02*
X167707000Y-63688000D01*
X161707000Y-63808000D02*
X167707000Y-63808000D01*
X161707000Y-63928000D02*
X167707000Y-63928000D01*
X161707000Y-64048000D02*
X167707000Y-64048000D01*
X161707000Y-64168000D02*
X167707000Y-64168000D01*
X161707000Y-64288000D02*
X167707000Y-64288000D01*
X158717000Y-63628000D02*
X159047000Y-63628000D01*
X158717000Y-64388000D02*
X159047000Y-64388000D01*
X159047000Y-65278000D02*
X161707000Y-65278000D01*
X161707000Y-66168000D02*
X167707000Y-66168000D01*
X167707000Y-66168000D02*
X167707000Y-66928000D01*
X167707000Y-66928000D02*
X161707000Y-66928000D01*
X158649929Y-66168000D02*
X159047000Y-66168000D01*
X158649929Y-66928000D02*
X159047000Y-66928000D01*
X159047000Y-67818000D02*
X161707000Y-67818000D01*
X161707000Y-68708000D02*
X167707000Y-68708000D01*
X167707000Y-68708000D02*
X167707000Y-69468000D01*
X167707000Y-69468000D02*
X161707000Y-69468000D01*
X158649929Y-68708000D02*
X159047000Y-68708000D01*
X158649929Y-69468000D02*
X159047000Y-69468000D01*
X159047000Y-70358000D02*
X161707000Y-70358000D01*
X161707000Y-71248000D02*
X167707000Y-71248000D01*
X167707000Y-71248000D02*
X167707000Y-72008000D01*
X167707000Y-72008000D02*
X161707000Y-72008000D01*
X158649929Y-71248000D02*
X159047000Y-71248000D01*
X158649929Y-72008000D02*
X159047000Y-72008000D01*
X156337000Y-64008000D02*
X156337000Y-62738000D01*
X156337000Y-62738000D02*
X157607000Y-62738000D01*
%TO.C,J8*%
X159047000Y-75378000D02*
X159047000Y-85658000D01*
X159047000Y-85658000D02*
X161707000Y-85658000D01*
X161707000Y-85658000D02*
X161707000Y-75378000D01*
X161707000Y-75378000D02*
X159047000Y-75378000D01*
X161707000Y-76328000D02*
X167707000Y-76328000D01*
X167707000Y-76328000D02*
X167707000Y-77088000D01*
X167707000Y-77088000D02*
X161707000Y-77088000D01*
X161707000Y-76388000D02*
X167707000Y-76388000D01*
X161707000Y-76508000D02*
X167707000Y-76508000D01*
X161707000Y-76628000D02*
X167707000Y-76628000D01*
X161707000Y-76748000D02*
X167707000Y-76748000D01*
X161707000Y-76868000D02*
X167707000Y-76868000D01*
X161707000Y-76988000D02*
X167707000Y-76988000D01*
X158717000Y-76328000D02*
X159047000Y-76328000D01*
X158717000Y-77088000D02*
X159047000Y-77088000D01*
X159047000Y-77978000D02*
X161707000Y-77978000D01*
X161707000Y-78868000D02*
X167707000Y-78868000D01*
X167707000Y-78868000D02*
X167707000Y-79628000D01*
X167707000Y-79628000D02*
X161707000Y-79628000D01*
X158649929Y-78868000D02*
X159047000Y-78868000D01*
X158649929Y-79628000D02*
X159047000Y-79628000D01*
X159047000Y-80518000D02*
X161707000Y-80518000D01*
X161707000Y-81408000D02*
X167707000Y-81408000D01*
X167707000Y-81408000D02*
X167707000Y-82168000D01*
X167707000Y-82168000D02*
X161707000Y-82168000D01*
X158649929Y-81408000D02*
X159047000Y-81408000D01*
X158649929Y-82168000D02*
X159047000Y-82168000D01*
X159047000Y-83058000D02*
X161707000Y-83058000D01*
X161707000Y-83948000D02*
X167707000Y-83948000D01*
X167707000Y-83948000D02*
X167707000Y-84708000D01*
X167707000Y-84708000D02*
X161707000Y-84708000D01*
X158649929Y-83948000D02*
X159047000Y-83948000D01*
X158649929Y-84708000D02*
X159047000Y-84708000D01*
X156337000Y-76708000D02*
X156337000Y-75438000D01*
X156337000Y-75438000D02*
X157607000Y-75438000D01*
%TO.C,J9*%
X159047000Y-88078000D02*
X159047000Y-98358000D01*
X159047000Y-98358000D02*
X161707000Y-98358000D01*
X161707000Y-98358000D02*
X161707000Y-88078000D01*
X161707000Y-88078000D02*
X159047000Y-88078000D01*
X161707000Y-89028000D02*
X167707000Y-89028000D01*
X167707000Y-89028000D02*
X167707000Y-89788000D01*
X167707000Y-89788000D02*
X161707000Y-89788000D01*
X161707000Y-89088000D02*
X167707000Y-89088000D01*
X161707000Y-89208000D02*
X167707000Y-89208000D01*
X161707000Y-89328000D02*
X167707000Y-89328000D01*
X161707000Y-89448000D02*
X167707000Y-89448000D01*
X161707000Y-89568000D02*
X167707000Y-89568000D01*
X161707000Y-89688000D02*
X167707000Y-89688000D01*
X158717000Y-89028000D02*
X159047000Y-89028000D01*
X158717000Y-89788000D02*
X159047000Y-89788000D01*
X159047000Y-90678000D02*
X161707000Y-90678000D01*
X161707000Y-91568000D02*
X167707000Y-91568000D01*
X167707000Y-91568000D02*
X167707000Y-92328000D01*
X167707000Y-92328000D02*
X161707000Y-92328000D01*
X158649929Y-91568000D02*
X159047000Y-91568000D01*
X158649929Y-92328000D02*
X159047000Y-92328000D01*
X159047000Y-93218000D02*
X161707000Y-93218000D01*
X161707000Y-94108000D02*
X167707000Y-94108000D01*
X167707000Y-94108000D02*
X167707000Y-94868000D01*
X167707000Y-94868000D02*
X161707000Y-94868000D01*
X158649929Y-94108000D02*
X159047000Y-94108000D01*
X158649929Y-94868000D02*
X159047000Y-94868000D01*
X159047000Y-95758000D02*
X161707000Y-95758000D01*
X161707000Y-96648000D02*
X167707000Y-96648000D01*
X167707000Y-96648000D02*
X167707000Y-97408000D01*
X167707000Y-97408000D02*
X161707000Y-97408000D01*
X158649929Y-96648000D02*
X159047000Y-96648000D01*
X158649929Y-97408000D02*
X159047000Y-97408000D01*
X156337000Y-89408000D02*
X156337000Y-88138000D01*
X156337000Y-88138000D02*
X157607000Y-88138000D01*
%TO.C,J10*%
X159047000Y-100778000D02*
X159047000Y-111058000D01*
X159047000Y-111058000D02*
X161707000Y-111058000D01*
X161707000Y-111058000D02*
X161707000Y-100778000D01*
X161707000Y-100778000D02*
X159047000Y-100778000D01*
X161707000Y-101728000D02*
X167707000Y-101728000D01*
X167707000Y-101728000D02*
X167707000Y-102488000D01*
X167707000Y-102488000D02*
X161707000Y-102488000D01*
X161707000Y-101788000D02*
X167707000Y-101788000D01*
X161707000Y-101908000D02*
X167707000Y-101908000D01*
X161707000Y-102028000D02*
X167707000Y-102028000D01*
X161707000Y-102148000D02*
X167707000Y-102148000D01*
X161707000Y-102268000D02*
X167707000Y-102268000D01*
X161707000Y-102388000D02*
X167707000Y-102388000D01*
X158717000Y-101728000D02*
X159047000Y-101728000D01*
X158717000Y-102488000D02*
X159047000Y-102488000D01*
X159047000Y-103378000D02*
X161707000Y-103378000D01*
X161707000Y-104268000D02*
X167707000Y-104268000D01*
X167707000Y-104268000D02*
X167707000Y-105028000D01*
X167707000Y-105028000D02*
X161707000Y-105028000D01*
X158649929Y-104268000D02*
X159047000Y-104268000D01*
X158649929Y-105028000D02*
X159047000Y-105028000D01*
X159047000Y-105918000D02*
X161707000Y-105918000D01*
X161707000Y-106808000D02*
X167707000Y-106808000D01*
X167707000Y-106808000D02*
X167707000Y-107568000D01*
X167707000Y-107568000D02*
X161707000Y-107568000D01*
X158649929Y-106808000D02*
X159047000Y-106808000D01*
X158649929Y-107568000D02*
X159047000Y-107568000D01*
X159047000Y-108458000D02*
X161707000Y-108458000D01*
X161707000Y-109348000D02*
X167707000Y-109348000D01*
X167707000Y-109348000D02*
X167707000Y-110108000D01*
X167707000Y-110108000D02*
X161707000Y-110108000D01*
X158649929Y-109348000D02*
X159047000Y-109348000D01*
X158649929Y-110108000D02*
X159047000Y-110108000D01*
X156337000Y-102108000D02*
X156337000Y-100838000D01*
X156337000Y-100838000D02*
X157607000Y-100838000D01*
%TO.C,J11*%
X155829000Y-113157000D02*
X165481000Y-113157000D01*
X155829000Y-124841000D02*
X155829000Y-113157000D01*
X165481000Y-124841000D02*
X155829000Y-124841000D01*
D13*
%TO.C,J12*%
X114300000Y-127000000D02*
G75*
G03*
X114300000Y-127000000I-381000J0D01*
G01*
X133011401Y-139420600D02*
X140208000Y-139420600D01*
X122851401Y-139420600D02*
X131910599Y-139420600D01*
X133671010Y-126873000D02*
X131250990Y-126873000D01*
X128591010Y-126873000D02*
X126170990Y-126873000D01*
X123511010Y-126873000D02*
X121090990Y-126873000D01*
X118431010Y-126873000D02*
X114554000Y-126873000D01*
X114554000Y-126873000D02*
X114554000Y-139420600D01*
X140208000Y-126873000D02*
X136330990Y-126873000D01*
X140208000Y-139420600D02*
X140208000Y-126873000D01*
X114554000Y-139420600D02*
X121750599Y-139420600D01*
D12*
%TO.C,R1*%
X118619000Y-89956621D02*
X118619000Y-89621379D01*
X119379000Y-89956621D02*
X119379000Y-89621379D01*
%TO.C,R2*%
X119379000Y-102656621D02*
X119379000Y-102321379D01*
X118619000Y-102656621D02*
X118619000Y-102321379D01*
%TO.C,R3*%
X119379000Y-64556621D02*
X119379000Y-64221379D01*
X118619000Y-64556621D02*
X118619000Y-64221379D01*
%TO.C,R4*%
X118619000Y-77256621D02*
X118619000Y-76921379D01*
X119379000Y-77256621D02*
X119379000Y-76921379D01*
%TO.C,R5*%
X118619000Y-115356621D02*
X118619000Y-115021379D01*
X119379000Y-115356621D02*
X119379000Y-115021379D01*
%TO.C,R6*%
X147321000Y-71079379D02*
X147321000Y-71414621D01*
X148081000Y-71079379D02*
X148081000Y-71414621D01*
%TO.C,R7*%
X148081000Y-83779379D02*
X148081000Y-84114621D01*
X147321000Y-83779379D02*
X147321000Y-84114621D01*
%TO.C,R8*%
X147321000Y-96479379D02*
X147321000Y-96814621D01*
X148081000Y-96479379D02*
X148081000Y-96814621D01*
%TO.C,R9*%
X147321000Y-109179379D02*
X147321000Y-109514621D01*
X148081000Y-109179379D02*
X148081000Y-109514621D01*
%TO.C,R10*%
X146940000Y-117007621D02*
X146940000Y-116672379D01*
X147700000Y-117007621D02*
X147700000Y-116672379D01*
%TO.C,R11*%
X158201379Y-126239000D02*
X158536621Y-126239000D01*
X158201379Y-126999000D02*
X158536621Y-126999000D01*
%TO.C,R12*%
X152994379Y-126999000D02*
X153329621Y-126999000D01*
X152994379Y-126239000D02*
X153329621Y-126239000D01*
%TO.C,R13*%
X147787379Y-126239000D02*
X148122621Y-126239000D01*
X147787379Y-126999000D02*
X148122621Y-126999000D01*
%TO.C,B1*%
D11*
X124721257Y-59138457D02*
X124808342Y-59167485D01*
X124837371Y-59196514D01*
X124866400Y-59254571D01*
X124866400Y-59341657D01*
X124837371Y-59399714D01*
X124808342Y-59428742D01*
X124750285Y-59457771D01*
X124518057Y-59457771D01*
X124518057Y-58848171D01*
X124721257Y-58848171D01*
X124779314Y-58877200D01*
X124808342Y-58906228D01*
X124837371Y-58964285D01*
X124837371Y-59022342D01*
X124808342Y-59080400D01*
X124779314Y-59109428D01*
X124721257Y-59138457D01*
X124518057Y-59138457D01*
X125446971Y-59457771D02*
X125098628Y-59457771D01*
X125272800Y-59457771D02*
X125272800Y-58848171D01*
X125214742Y-58935257D01*
X125156685Y-58993314D01*
X125098628Y-59022342D01*
X128284514Y-91686742D02*
X128371600Y-91715771D01*
X128516742Y-91715771D01*
X128574800Y-91686742D01*
X128603828Y-91657714D01*
X128632857Y-91599657D01*
X128632857Y-91541600D01*
X128603828Y-91483542D01*
X128574800Y-91454514D01*
X128516742Y-91425485D01*
X128400628Y-91396457D01*
X128342571Y-91367428D01*
X128313542Y-91338400D01*
X128284514Y-91280342D01*
X128284514Y-91222285D01*
X128313542Y-91164228D01*
X128342571Y-91135200D01*
X128400628Y-91106171D01*
X128545771Y-91106171D01*
X128632857Y-91135200D01*
X128894114Y-91715771D02*
X128894114Y-91106171D01*
X129126342Y-91106171D01*
X129184400Y-91135200D01*
X129213428Y-91164228D01*
X129242457Y-91222285D01*
X129242457Y-91309371D01*
X129213428Y-91367428D01*
X129184400Y-91396457D01*
X129126342Y-91425485D01*
X128894114Y-91425485D01*
X129474685Y-91541600D02*
X129764971Y-91541600D01*
X129416628Y-91715771D02*
X129619828Y-91106171D01*
X129823028Y-91715771D01*
X130374571Y-91715771D02*
X130171371Y-91425485D01*
X130026228Y-91715771D02*
X130026228Y-91106171D01*
X130258457Y-91106171D01*
X130316514Y-91135200D01*
X130345542Y-91164228D01*
X130374571Y-91222285D01*
X130374571Y-91309371D01*
X130345542Y-91367428D01*
X130316514Y-91396457D01*
X130258457Y-91425485D01*
X130026228Y-91425485D01*
X130635828Y-91715771D02*
X130635828Y-91106171D01*
X130984171Y-91715771D02*
X130722914Y-91367428D01*
X130984171Y-91106171D02*
X130635828Y-91454514D01*
X131448628Y-91396457D02*
X131245428Y-91396457D01*
X131245428Y-91715771D02*
X131245428Y-91106171D01*
X131535714Y-91106171D01*
X131767942Y-91106171D02*
X131767942Y-91599657D01*
X131796971Y-91657714D01*
X131826000Y-91686742D01*
X131884057Y-91715771D01*
X132000171Y-91715771D01*
X132058228Y-91686742D01*
X132087257Y-91657714D01*
X132116285Y-91599657D01*
X132116285Y-91106171D01*
X132406571Y-91715771D02*
X132406571Y-91106171D01*
X132754914Y-91715771D01*
X132754914Y-91106171D01*
X132900057Y-91773828D02*
X133364514Y-91773828D01*
X133509657Y-91715771D02*
X133509657Y-91106171D01*
X133741885Y-91106171D01*
X133799942Y-91135200D01*
X133828971Y-91164228D01*
X133858000Y-91222285D01*
X133858000Y-91309371D01*
X133828971Y-91367428D01*
X133799942Y-91396457D01*
X133741885Y-91425485D01*
X133509657Y-91425485D01*
X134467600Y-91715771D02*
X134264400Y-91425485D01*
X134119257Y-91715771D02*
X134119257Y-91106171D01*
X134351485Y-91106171D01*
X134409542Y-91135200D01*
X134438571Y-91164228D01*
X134467600Y-91222285D01*
X134467600Y-91309371D01*
X134438571Y-91367428D01*
X134409542Y-91396457D01*
X134351485Y-91425485D01*
X134119257Y-91425485D01*
X134844971Y-91106171D02*
X134961085Y-91106171D01*
X135019142Y-91135200D01*
X135077200Y-91193257D01*
X135106228Y-91309371D01*
X135106228Y-91512571D01*
X135077200Y-91628685D01*
X135019142Y-91686742D01*
X134961085Y-91715771D01*
X134844971Y-91715771D01*
X134786914Y-91686742D01*
X134728857Y-91628685D01*
X134699828Y-91512571D01*
X134699828Y-91309371D01*
X134728857Y-91193257D01*
X134786914Y-91135200D01*
X134844971Y-91106171D01*
X135222342Y-91773828D02*
X135686800Y-91773828D01*
X135831942Y-91715771D02*
X135831942Y-91106171D01*
X136035142Y-91541600D01*
X136238342Y-91106171D01*
X136238342Y-91715771D01*
X136528628Y-91715771D02*
X136528628Y-91106171D01*
X137167257Y-91657714D02*
X137138228Y-91686742D01*
X137051142Y-91715771D01*
X136993085Y-91715771D01*
X136906000Y-91686742D01*
X136847942Y-91628685D01*
X136818914Y-91570628D01*
X136789885Y-91454514D01*
X136789885Y-91367428D01*
X136818914Y-91251314D01*
X136847942Y-91193257D01*
X136906000Y-91135200D01*
X136993085Y-91106171D01*
X137051142Y-91106171D01*
X137138228Y-91135200D01*
X137167257Y-91164228D01*
X137776857Y-91715771D02*
X137573657Y-91425485D01*
X137428514Y-91715771D02*
X137428514Y-91106171D01*
X137660742Y-91106171D01*
X137718800Y-91135200D01*
X137747828Y-91164228D01*
X137776857Y-91222285D01*
X137776857Y-91309371D01*
X137747828Y-91367428D01*
X137718800Y-91396457D01*
X137660742Y-91425485D01*
X137428514Y-91425485D01*
X138154228Y-91106171D02*
X138270342Y-91106171D01*
X138328400Y-91135200D01*
X138386457Y-91193257D01*
X138415485Y-91309371D01*
X138415485Y-91512571D01*
X138386457Y-91628685D01*
X138328400Y-91686742D01*
X138270342Y-91715771D01*
X138154228Y-91715771D01*
X138096171Y-91686742D01*
X138038114Y-91628685D01*
X138009085Y-91512571D01*
X138009085Y-91309371D01*
X138038114Y-91193257D01*
X138096171Y-91135200D01*
X138154228Y-91106171D01*
D13*
X132273523Y-58838495D02*
X132273523Y-59496476D01*
X132312228Y-59573885D01*
X132350933Y-59612590D01*
X132428342Y-59651295D01*
X132583161Y-59651295D01*
X132660571Y-59612590D01*
X132699276Y-59573885D01*
X132737980Y-59496476D01*
X132737980Y-58838495D01*
X133086323Y-59612590D02*
X133202438Y-59651295D01*
X133395961Y-59651295D01*
X133473371Y-59612590D01*
X133512076Y-59573885D01*
X133550780Y-59496476D01*
X133550780Y-59419066D01*
X133512076Y-59341657D01*
X133473371Y-59302952D01*
X133395961Y-59264247D01*
X133241142Y-59225542D01*
X133163733Y-59186838D01*
X133125028Y-59148133D01*
X133086323Y-59070723D01*
X133086323Y-58993314D01*
X133125028Y-58915904D01*
X133163733Y-58877200D01*
X133241142Y-58838495D01*
X133434666Y-58838495D01*
X133550780Y-58877200D01*
X134170057Y-59225542D02*
X134286171Y-59264247D01*
X134324876Y-59302952D01*
X134363580Y-59380361D01*
X134363580Y-59496476D01*
X134324876Y-59573885D01*
X134286171Y-59612590D01*
X134208761Y-59651295D01*
X133899123Y-59651295D01*
X133899123Y-58838495D01*
X134170057Y-58838495D01*
X134247466Y-58877200D01*
X134286171Y-58915904D01*
X134324876Y-58993314D01*
X134324876Y-59070723D01*
X134286171Y-59148133D01*
X134247466Y-59186838D01*
X134170057Y-59225542D01*
X133899123Y-59225542D01*
%TO.C,C21*%
D10*
X153392142Y-124848857D02*
X153439761Y-124896476D01*
X153487380Y-125039333D01*
X153487380Y-125134571D01*
X153439761Y-125277428D01*
X153344523Y-125372666D01*
X153249285Y-125420285D01*
X153058809Y-125467904D01*
X152915952Y-125467904D01*
X152725476Y-125420285D01*
X152630238Y-125372666D01*
X152535000Y-125277428D01*
X152487380Y-125134571D01*
X152487380Y-125039333D01*
X152535000Y-124896476D01*
X152582619Y-124848857D01*
X152582619Y-124467904D02*
X152535000Y-124420285D01*
X152487380Y-124325047D01*
X152487380Y-124086952D01*
X152535000Y-123991714D01*
X152582619Y-123944095D01*
X152677857Y-123896476D01*
X152773095Y-123896476D01*
X152915952Y-123944095D01*
X153487380Y-124515523D01*
X153487380Y-123896476D01*
X153487380Y-122944095D02*
X153487380Y-123515523D01*
X153487380Y-123229809D02*
X152487380Y-123229809D01*
X152630238Y-123325047D01*
X152725476Y-123420285D01*
X152773095Y-123515523D01*
%TO.C,C8*%
X116181142Y-100496666D02*
X116228761Y-100544285D01*
X116276380Y-100687142D01*
X116276380Y-100782380D01*
X116228761Y-100925238D01*
X116133523Y-101020476D01*
X116038285Y-101068095D01*
X115847809Y-101115714D01*
X115704952Y-101115714D01*
X115514476Y-101068095D01*
X115419238Y-101020476D01*
X115324000Y-100925238D01*
X115276380Y-100782380D01*
X115276380Y-100687142D01*
X115324000Y-100544285D01*
X115371619Y-100496666D01*
X115704952Y-99925238D02*
X115657333Y-100020476D01*
X115609714Y-100068095D01*
X115514476Y-100115714D01*
X115466857Y-100115714D01*
X115371619Y-100068095D01*
X115324000Y-100020476D01*
X115276380Y-99925238D01*
X115276380Y-99734761D01*
X115324000Y-99639523D01*
X115371619Y-99591904D01*
X115466857Y-99544285D01*
X115514476Y-99544285D01*
X115609714Y-99591904D01*
X115657333Y-99639523D01*
X115704952Y-99734761D01*
X115704952Y-99925238D01*
X115752571Y-100020476D01*
X115800190Y-100068095D01*
X115895428Y-100115714D01*
X116085904Y-100115714D01*
X116181142Y-100068095D01*
X116228761Y-100020476D01*
X116276380Y-99925238D01*
X116276380Y-99734761D01*
X116228761Y-99639523D01*
X116181142Y-99591904D01*
X116085904Y-99544285D01*
X115895428Y-99544285D01*
X115800190Y-99591904D01*
X115752571Y-99639523D01*
X115704952Y-99734761D01*
X112498380Y-104719380D02*
X111926952Y-104719380D01*
X112212666Y-104719380D02*
X112212666Y-103719380D01*
X112117428Y-103862238D01*
X112022190Y-103957476D01*
X111926952Y-104005095D01*
X113117428Y-103719380D02*
X113212666Y-103719380D01*
X113307904Y-103767000D01*
X113355523Y-103814619D01*
X113403142Y-103909857D01*
X113450761Y-104100333D01*
X113450761Y-104338428D01*
X113403142Y-104528904D01*
X113355523Y-104624142D01*
X113307904Y-104671761D01*
X113212666Y-104719380D01*
X113117428Y-104719380D01*
X113022190Y-104671761D01*
X112974571Y-104624142D01*
X112926952Y-104528904D01*
X112879333Y-104338428D01*
X112879333Y-104100333D01*
X112926952Y-103909857D01*
X112974571Y-103814619D01*
X113022190Y-103767000D01*
X113117428Y-103719380D01*
X114069809Y-103719380D02*
X114165047Y-103719380D01*
X114260285Y-103767000D01*
X114307904Y-103814619D01*
X114355523Y-103909857D01*
X114403142Y-104100333D01*
X114403142Y-104338428D01*
X114355523Y-104528904D01*
X114307904Y-104624142D01*
X114260285Y-104671761D01*
X114165047Y-104719380D01*
X114069809Y-104719380D01*
X113974571Y-104671761D01*
X113926952Y-104624142D01*
X113879333Y-104528904D01*
X113831714Y-104338428D01*
X113831714Y-104100333D01*
X113879333Y-103909857D01*
X113926952Y-103814619D01*
X113974571Y-103767000D01*
X114069809Y-103719380D01*
X115260285Y-104052714D02*
X115260285Y-104719380D01*
X114831714Y-104052714D02*
X114831714Y-104576523D01*
X114879333Y-104671761D01*
X114974571Y-104719380D01*
X115117428Y-104719380D01*
X115212666Y-104671761D01*
X115260285Y-104624142D01*
X116069809Y-104195571D02*
X115736476Y-104195571D01*
X115736476Y-104719380D02*
X115736476Y-103719380D01*
X116212666Y-103719380D01*
X116038380Y-102235000D02*
X116276476Y-102235000D01*
X116181238Y-102473095D02*
X116276476Y-102235000D01*
X116181238Y-101996904D01*
X116466952Y-102377857D02*
X116276476Y-102235000D01*
X116466952Y-102092142D01*
%TO.C,REF\u002A\u002A*%
X93408666Y-130754380D02*
X93075333Y-130278190D01*
X92837238Y-130754380D02*
X92837238Y-129754380D01*
X93218190Y-129754380D01*
X93313428Y-129802000D01*
X93361047Y-129849619D01*
X93408666Y-129944857D01*
X93408666Y-130087714D01*
X93361047Y-130182952D01*
X93313428Y-130230571D01*
X93218190Y-130278190D01*
X92837238Y-130278190D01*
X93837238Y-130230571D02*
X94170571Y-130230571D01*
X94313428Y-130754380D02*
X93837238Y-130754380D01*
X93837238Y-129754380D01*
X94313428Y-129754380D01*
X95075333Y-130230571D02*
X94742000Y-130230571D01*
X94742000Y-130754380D02*
X94742000Y-129754380D01*
X95218190Y-129754380D01*
X95742000Y-129754380D02*
X95742000Y-129992476D01*
X95503904Y-129897238D02*
X95742000Y-129992476D01*
X95980095Y-129897238D01*
X95599142Y-130182952D02*
X95742000Y-129992476D01*
X95884857Y-130182952D01*
X96503904Y-129754380D02*
X96503904Y-129992476D01*
X96265809Y-129897238D02*
X96503904Y-129992476D01*
X96742000Y-129897238D01*
X96361047Y-130182952D02*
X96503904Y-129992476D01*
X96646761Y-130182952D01*
X91757666Y-53919380D02*
X91424333Y-53443190D01*
X91186238Y-53919380D02*
X91186238Y-52919380D01*
X91567190Y-52919380D01*
X91662428Y-52967000D01*
X91710047Y-53014619D01*
X91757666Y-53109857D01*
X91757666Y-53252714D01*
X91710047Y-53347952D01*
X91662428Y-53395571D01*
X91567190Y-53443190D01*
X91186238Y-53443190D01*
X92186238Y-53395571D02*
X92519571Y-53395571D01*
X92662428Y-53919380D02*
X92186238Y-53919380D01*
X92186238Y-52919380D01*
X92662428Y-52919380D01*
X93424333Y-53395571D02*
X93091000Y-53395571D01*
X93091000Y-53919380D02*
X93091000Y-52919380D01*
X93567190Y-52919380D01*
X94091000Y-52919380D02*
X94091000Y-53157476D01*
X93852904Y-53062238D02*
X94091000Y-53157476D01*
X94329095Y-53062238D01*
X93948142Y-53347952D02*
X94091000Y-53157476D01*
X94233857Y-53347952D01*
X94852904Y-52919380D02*
X94852904Y-53157476D01*
X94614809Y-53062238D02*
X94852904Y-53157476D01*
X95091000Y-53062238D01*
X94710047Y-53347952D02*
X94852904Y-53157476D01*
X94995761Y-53347952D01*
X171259666Y-130246380D02*
X170926333Y-129770190D01*
X170688238Y-130246380D02*
X170688238Y-129246380D01*
X171069190Y-129246380D01*
X171164428Y-129294000D01*
X171212047Y-129341619D01*
X171259666Y-129436857D01*
X171259666Y-129579714D01*
X171212047Y-129674952D01*
X171164428Y-129722571D01*
X171069190Y-129770190D01*
X170688238Y-129770190D01*
X171688238Y-129722571D02*
X172021571Y-129722571D01*
X172164428Y-130246380D02*
X171688238Y-130246380D01*
X171688238Y-129246380D01*
X172164428Y-129246380D01*
X172926333Y-129722571D02*
X172593000Y-129722571D01*
X172593000Y-130246380D02*
X172593000Y-129246380D01*
X173069190Y-129246380D01*
X173593000Y-129246380D02*
X173593000Y-129484476D01*
X173354904Y-129389238D02*
X173593000Y-129484476D01*
X173831095Y-129389238D01*
X173450142Y-129674952D02*
X173593000Y-129484476D01*
X173735857Y-129674952D01*
X174354904Y-129246380D02*
X174354904Y-129484476D01*
X174116809Y-129389238D02*
X174354904Y-129484476D01*
X174593000Y-129389238D01*
X174212047Y-129674952D02*
X174354904Y-129484476D01*
X174497761Y-129674952D01*
X170243666Y-53665380D02*
X169910333Y-53189190D01*
X169672238Y-53665380D02*
X169672238Y-52665380D01*
X170053190Y-52665380D01*
X170148428Y-52713000D01*
X170196047Y-52760619D01*
X170243666Y-52855857D01*
X170243666Y-52998714D01*
X170196047Y-53093952D01*
X170148428Y-53141571D01*
X170053190Y-53189190D01*
X169672238Y-53189190D01*
X170672238Y-53141571D02*
X171005571Y-53141571D01*
X171148428Y-53665380D02*
X170672238Y-53665380D01*
X170672238Y-52665380D01*
X171148428Y-52665380D01*
X171910333Y-53141571D02*
X171577000Y-53141571D01*
X171577000Y-53665380D02*
X171577000Y-52665380D01*
X172053190Y-52665380D01*
X172577000Y-52665380D02*
X172577000Y-52903476D01*
X172338904Y-52808238D02*
X172577000Y-52903476D01*
X172815095Y-52808238D01*
X172434142Y-53093952D02*
X172577000Y-52903476D01*
X172719857Y-53093952D01*
X173338904Y-52665380D02*
X173338904Y-52903476D01*
X173100809Y-52808238D02*
X173338904Y-52903476D01*
X173577000Y-52808238D01*
X173196047Y-53093952D02*
X173338904Y-52903476D01*
X173481761Y-53093952D01*
%TO.C,C1*%
X145424142Y-68746666D02*
X145471761Y-68794285D01*
X145519380Y-68937142D01*
X145519380Y-69032380D01*
X145471761Y-69175238D01*
X145376523Y-69270476D01*
X145281285Y-69318095D01*
X145090809Y-69365714D01*
X144947952Y-69365714D01*
X144757476Y-69318095D01*
X144662238Y-69270476D01*
X144567000Y-69175238D01*
X144519380Y-69032380D01*
X144519380Y-68937142D01*
X144567000Y-68794285D01*
X144614619Y-68746666D01*
X145519380Y-67794285D02*
X145519380Y-68365714D01*
X145519380Y-68080000D02*
X144519380Y-68080000D01*
X144662238Y-68175238D01*
X144757476Y-68270476D01*
X144805095Y-68365714D01*
%TO.C,C2*%
X112117142Y-99988666D02*
X112164761Y-100036285D01*
X112212380Y-100179142D01*
X112212380Y-100274380D01*
X112164761Y-100417238D01*
X112069523Y-100512476D01*
X111974285Y-100560095D01*
X111783809Y-100607714D01*
X111640952Y-100607714D01*
X111450476Y-100560095D01*
X111355238Y-100512476D01*
X111260000Y-100417238D01*
X111212380Y-100274380D01*
X111212380Y-100179142D01*
X111260000Y-100036285D01*
X111307619Y-99988666D01*
X111307619Y-99607714D02*
X111260000Y-99560095D01*
X111212380Y-99464857D01*
X111212380Y-99226761D01*
X111260000Y-99131523D01*
X111307619Y-99083904D01*
X111402857Y-99036285D01*
X111498095Y-99036285D01*
X111640952Y-99083904D01*
X112212380Y-99655333D01*
X112212380Y-99036285D01*
%TO.C,C3*%
X112244142Y-112688666D02*
X112291761Y-112736285D01*
X112339380Y-112879142D01*
X112339380Y-112974380D01*
X112291761Y-113117238D01*
X112196523Y-113212476D01*
X112101285Y-113260095D01*
X111910809Y-113307714D01*
X111767952Y-113307714D01*
X111577476Y-113260095D01*
X111482238Y-113212476D01*
X111387000Y-113117238D01*
X111339380Y-112974380D01*
X111339380Y-112879142D01*
X111387000Y-112736285D01*
X111434619Y-112688666D01*
X111339380Y-112355333D02*
X111339380Y-111736285D01*
X111720333Y-112069619D01*
X111720333Y-111926761D01*
X111767952Y-111831523D01*
X111815571Y-111783904D01*
X111910809Y-111736285D01*
X112148904Y-111736285D01*
X112244142Y-111783904D01*
X112291761Y-111831523D01*
X112339380Y-111926761D01*
X112339380Y-112212476D01*
X112291761Y-112307714D01*
X112244142Y-112355333D01*
%TO.C,C4*%
X113641142Y-71921666D02*
X113688761Y-71969285D01*
X113736380Y-72112142D01*
X113736380Y-72207380D01*
X113688761Y-72350238D01*
X113593523Y-72445476D01*
X113498285Y-72493095D01*
X113307809Y-72540714D01*
X113164952Y-72540714D01*
X112974476Y-72493095D01*
X112879238Y-72445476D01*
X112784000Y-72350238D01*
X112736380Y-72207380D01*
X112736380Y-72112142D01*
X112784000Y-71969285D01*
X112831619Y-71921666D01*
X113069714Y-71064523D02*
X113736380Y-71064523D01*
X112688761Y-71302619D02*
X113403047Y-71540714D01*
X113403047Y-70921666D01*
%TO.C,C5*%
X113641142Y-84621666D02*
X113688761Y-84669285D01*
X113736380Y-84812142D01*
X113736380Y-84907380D01*
X113688761Y-85050238D01*
X113593523Y-85145476D01*
X113498285Y-85193095D01*
X113307809Y-85240714D01*
X113164952Y-85240714D01*
X112974476Y-85193095D01*
X112879238Y-85145476D01*
X112784000Y-85050238D01*
X112736380Y-84907380D01*
X112736380Y-84812142D01*
X112784000Y-84669285D01*
X112831619Y-84621666D01*
X112736380Y-83716904D02*
X112736380Y-84193095D01*
X113212571Y-84240714D01*
X113164952Y-84193095D01*
X113117333Y-84097857D01*
X113117333Y-83859761D01*
X113164952Y-83764523D01*
X113212571Y-83716904D01*
X113307809Y-83669285D01*
X113545904Y-83669285D01*
X113641142Y-83716904D01*
X113688761Y-83764523D01*
X113736380Y-83859761D01*
X113736380Y-84097857D01*
X113688761Y-84193095D01*
X113641142Y-84240714D01*
%TO.C,C6*%
X112117142Y-125388666D02*
X112164761Y-125436285D01*
X112212380Y-125579142D01*
X112212380Y-125674380D01*
X112164761Y-125817238D01*
X112069523Y-125912476D01*
X111974285Y-125960095D01*
X111783809Y-126007714D01*
X111640952Y-126007714D01*
X111450476Y-125960095D01*
X111355238Y-125912476D01*
X111260000Y-125817238D01*
X111212380Y-125674380D01*
X111212380Y-125579142D01*
X111260000Y-125436285D01*
X111307619Y-125388666D01*
X111212380Y-124531523D02*
X111212380Y-124722000D01*
X111260000Y-124817238D01*
X111307619Y-124864857D01*
X111450476Y-124960095D01*
X111640952Y-125007714D01*
X112021904Y-125007714D01*
X112117142Y-124960095D01*
X112164761Y-124912476D01*
X112212380Y-124817238D01*
X112212380Y-124626761D01*
X112164761Y-124531523D01*
X112117142Y-124483904D01*
X112021904Y-124436285D01*
X111783809Y-124436285D01*
X111688571Y-124483904D01*
X111640952Y-124531523D01*
X111593333Y-124626761D01*
X111593333Y-124817238D01*
X111640952Y-124912476D01*
X111688571Y-124960095D01*
X111783809Y-125007714D01*
%TO.C,C7*%
X116054142Y-87796666D02*
X116101761Y-87844285D01*
X116149380Y-87987142D01*
X116149380Y-88082380D01*
X116101761Y-88225238D01*
X116006523Y-88320476D01*
X115911285Y-88368095D01*
X115720809Y-88415714D01*
X115577952Y-88415714D01*
X115387476Y-88368095D01*
X115292238Y-88320476D01*
X115197000Y-88225238D01*
X115149380Y-88082380D01*
X115149380Y-87987142D01*
X115197000Y-87844285D01*
X115244619Y-87796666D01*
X115149380Y-87463333D02*
X115149380Y-86796666D01*
X116149380Y-87225238D01*
X112498380Y-92019380D02*
X111926952Y-92019380D01*
X112212666Y-92019380D02*
X112212666Y-91019380D01*
X112117428Y-91162238D01*
X112022190Y-91257476D01*
X111926952Y-91305095D01*
X113117428Y-91019380D02*
X113212666Y-91019380D01*
X113307904Y-91067000D01*
X113355523Y-91114619D01*
X113403142Y-91209857D01*
X113450761Y-91400333D01*
X113450761Y-91638428D01*
X113403142Y-91828904D01*
X113355523Y-91924142D01*
X113307904Y-91971761D01*
X113212666Y-92019380D01*
X113117428Y-92019380D01*
X113022190Y-91971761D01*
X112974571Y-91924142D01*
X112926952Y-91828904D01*
X112879333Y-91638428D01*
X112879333Y-91400333D01*
X112926952Y-91209857D01*
X112974571Y-91114619D01*
X113022190Y-91067000D01*
X113117428Y-91019380D01*
X114069809Y-91019380D02*
X114165047Y-91019380D01*
X114260285Y-91067000D01*
X114307904Y-91114619D01*
X114355523Y-91209857D01*
X114403142Y-91400333D01*
X114403142Y-91638428D01*
X114355523Y-91828904D01*
X114307904Y-91924142D01*
X114260285Y-91971761D01*
X114165047Y-92019380D01*
X114069809Y-92019380D01*
X113974571Y-91971761D01*
X113926952Y-91924142D01*
X113879333Y-91828904D01*
X113831714Y-91638428D01*
X113831714Y-91400333D01*
X113879333Y-91209857D01*
X113926952Y-91114619D01*
X113974571Y-91067000D01*
X114069809Y-91019380D01*
X115260285Y-91352714D02*
X115260285Y-92019380D01*
X114831714Y-91352714D02*
X114831714Y-91876523D01*
X114879333Y-91971761D01*
X114974571Y-92019380D01*
X115117428Y-92019380D01*
X115212666Y-91971761D01*
X115260285Y-91924142D01*
X116069809Y-91495571D02*
X115736476Y-91495571D01*
X115736476Y-92019380D02*
X115736476Y-91019380D01*
X116212666Y-91019380D01*
X116038380Y-89535000D02*
X116276476Y-89535000D01*
X116181238Y-89773095D02*
X116276476Y-89535000D01*
X116181238Y-89296904D01*
X116466952Y-89677857D02*
X116276476Y-89535000D01*
X116466952Y-89392142D01*
%TO.C,C9*%
X116054142Y-62396666D02*
X116101761Y-62444285D01*
X116149380Y-62587142D01*
X116149380Y-62682380D01*
X116101761Y-62825238D01*
X116006523Y-62920476D01*
X115911285Y-62968095D01*
X115720809Y-63015714D01*
X115577952Y-63015714D01*
X115387476Y-62968095D01*
X115292238Y-62920476D01*
X115197000Y-62825238D01*
X115149380Y-62682380D01*
X115149380Y-62587142D01*
X115197000Y-62444285D01*
X115244619Y-62396666D01*
X116149380Y-61920476D02*
X116149380Y-61730000D01*
X116101761Y-61634761D01*
X116054142Y-61587142D01*
X115911285Y-61491904D01*
X115720809Y-61444285D01*
X115339857Y-61444285D01*
X115244619Y-61491904D01*
X115197000Y-61539523D01*
X115149380Y-61634761D01*
X115149380Y-61825238D01*
X115197000Y-61920476D01*
X115244619Y-61968095D01*
X115339857Y-62015714D01*
X115577952Y-62015714D01*
X115673190Y-61968095D01*
X115720809Y-61920476D01*
X115768428Y-61825238D01*
X115768428Y-61634761D01*
X115720809Y-61539523D01*
X115673190Y-61491904D01*
X115577952Y-61444285D01*
X112498380Y-66619380D02*
X111926952Y-66619380D01*
X112212666Y-66619380D02*
X112212666Y-65619380D01*
X112117428Y-65762238D01*
X112022190Y-65857476D01*
X111926952Y-65905095D01*
X113117428Y-65619380D02*
X113212666Y-65619380D01*
X113307904Y-65667000D01*
X113355523Y-65714619D01*
X113403142Y-65809857D01*
X113450761Y-66000333D01*
X113450761Y-66238428D01*
X113403142Y-66428904D01*
X113355523Y-66524142D01*
X113307904Y-66571761D01*
X113212666Y-66619380D01*
X113117428Y-66619380D01*
X113022190Y-66571761D01*
X112974571Y-66524142D01*
X112926952Y-66428904D01*
X112879333Y-66238428D01*
X112879333Y-66000333D01*
X112926952Y-65809857D01*
X112974571Y-65714619D01*
X113022190Y-65667000D01*
X113117428Y-65619380D01*
X114069809Y-65619380D02*
X114165047Y-65619380D01*
X114260285Y-65667000D01*
X114307904Y-65714619D01*
X114355523Y-65809857D01*
X114403142Y-66000333D01*
X114403142Y-66238428D01*
X114355523Y-66428904D01*
X114307904Y-66524142D01*
X114260285Y-66571761D01*
X114165047Y-66619380D01*
X114069809Y-66619380D01*
X113974571Y-66571761D01*
X113926952Y-66524142D01*
X113879333Y-66428904D01*
X113831714Y-66238428D01*
X113831714Y-66000333D01*
X113879333Y-65809857D01*
X113926952Y-65714619D01*
X113974571Y-65667000D01*
X114069809Y-65619380D01*
X115260285Y-65952714D02*
X115260285Y-66619380D01*
X114831714Y-65952714D02*
X114831714Y-66476523D01*
X114879333Y-66571761D01*
X114974571Y-66619380D01*
X115117428Y-66619380D01*
X115212666Y-66571761D01*
X115260285Y-66524142D01*
X116069809Y-66095571D02*
X115736476Y-66095571D01*
X115736476Y-66619380D02*
X115736476Y-65619380D01*
X116212666Y-65619380D01*
X116038380Y-64135000D02*
X116276476Y-64135000D01*
X116181238Y-64373095D02*
X116276476Y-64135000D01*
X116181238Y-63896904D01*
X116466952Y-64277857D02*
X116276476Y-64135000D01*
X116466952Y-63992142D01*
%TO.C,C10*%
X116054142Y-75064857D02*
X116101761Y-75112476D01*
X116149380Y-75255333D01*
X116149380Y-75350571D01*
X116101761Y-75493428D01*
X116006523Y-75588666D01*
X115911285Y-75636285D01*
X115720809Y-75683904D01*
X115577952Y-75683904D01*
X115387476Y-75636285D01*
X115292238Y-75588666D01*
X115197000Y-75493428D01*
X115149380Y-75350571D01*
X115149380Y-75255333D01*
X115197000Y-75112476D01*
X115244619Y-75064857D01*
X116149380Y-74112476D02*
X116149380Y-74683904D01*
X116149380Y-74398190D02*
X115149380Y-74398190D01*
X115292238Y-74493428D01*
X115387476Y-74588666D01*
X115435095Y-74683904D01*
X115149380Y-73493428D02*
X115149380Y-73398190D01*
X115197000Y-73302952D01*
X115244619Y-73255333D01*
X115339857Y-73207714D01*
X115530333Y-73160095D01*
X115768428Y-73160095D01*
X115958904Y-73207714D01*
X116054142Y-73255333D01*
X116101761Y-73302952D01*
X116149380Y-73398190D01*
X116149380Y-73493428D01*
X116101761Y-73588666D01*
X116054142Y-73636285D01*
X115958904Y-73683904D01*
X115768428Y-73731523D01*
X115530333Y-73731523D01*
X115339857Y-73683904D01*
X115244619Y-73636285D01*
X115197000Y-73588666D01*
X115149380Y-73493428D01*
X112498380Y-79319380D02*
X111926952Y-79319380D01*
X112212666Y-79319380D02*
X112212666Y-78319380D01*
X112117428Y-78462238D01*
X112022190Y-78557476D01*
X111926952Y-78605095D01*
X113117428Y-78319380D02*
X113212666Y-78319380D01*
X113307904Y-78367000D01*
X113355523Y-78414619D01*
X113403142Y-78509857D01*
X113450761Y-78700333D01*
X113450761Y-78938428D01*
X113403142Y-79128904D01*
X113355523Y-79224142D01*
X113307904Y-79271761D01*
X113212666Y-79319380D01*
X113117428Y-79319380D01*
X113022190Y-79271761D01*
X112974571Y-79224142D01*
X112926952Y-79128904D01*
X112879333Y-78938428D01*
X112879333Y-78700333D01*
X112926952Y-78509857D01*
X112974571Y-78414619D01*
X113022190Y-78367000D01*
X113117428Y-78319380D01*
X114069809Y-78319380D02*
X114165047Y-78319380D01*
X114260285Y-78367000D01*
X114307904Y-78414619D01*
X114355523Y-78509857D01*
X114403142Y-78700333D01*
X114403142Y-78938428D01*
X114355523Y-79128904D01*
X114307904Y-79224142D01*
X114260285Y-79271761D01*
X114165047Y-79319380D01*
X114069809Y-79319380D01*
X113974571Y-79271761D01*
X113926952Y-79224142D01*
X113879333Y-79128904D01*
X113831714Y-78938428D01*
X113831714Y-78700333D01*
X113879333Y-78509857D01*
X113926952Y-78414619D01*
X113974571Y-78367000D01*
X114069809Y-78319380D01*
X115260285Y-78652714D02*
X115260285Y-79319380D01*
X114831714Y-78652714D02*
X114831714Y-79176523D01*
X114879333Y-79271761D01*
X114974571Y-79319380D01*
X115117428Y-79319380D01*
X115212666Y-79271761D01*
X115260285Y-79224142D01*
X116069809Y-78795571D02*
X115736476Y-78795571D01*
X115736476Y-79319380D02*
X115736476Y-78319380D01*
X116212666Y-78319380D01*
X116038380Y-76835000D02*
X116276476Y-76835000D01*
X116181238Y-77073095D02*
X116276476Y-76835000D01*
X116181238Y-76596904D01*
X116466952Y-76977857D02*
X116276476Y-76835000D01*
X116466952Y-76692142D01*
%TO.C,C11*%
X116054142Y-113164857D02*
X116101761Y-113212476D01*
X116149380Y-113355333D01*
X116149380Y-113450571D01*
X116101761Y-113593428D01*
X116006523Y-113688666D01*
X115911285Y-113736285D01*
X115720809Y-113783904D01*
X115577952Y-113783904D01*
X115387476Y-113736285D01*
X115292238Y-113688666D01*
X115197000Y-113593428D01*
X115149380Y-113450571D01*
X115149380Y-113355333D01*
X115197000Y-113212476D01*
X115244619Y-113164857D01*
X116149380Y-112212476D02*
X116149380Y-112783904D01*
X116149380Y-112498190D02*
X115149380Y-112498190D01*
X115292238Y-112593428D01*
X115387476Y-112688666D01*
X115435095Y-112783904D01*
X116149380Y-111260095D02*
X116149380Y-111831523D01*
X116149380Y-111545809D02*
X115149380Y-111545809D01*
X115292238Y-111641047D01*
X115387476Y-111736285D01*
X115435095Y-111831523D01*
X112498380Y-117419380D02*
X111926952Y-117419380D01*
X112212666Y-117419380D02*
X112212666Y-116419380D01*
X112117428Y-116562238D01*
X112022190Y-116657476D01*
X111926952Y-116705095D01*
X113117428Y-116419380D02*
X113212666Y-116419380D01*
X113307904Y-116467000D01*
X113355523Y-116514619D01*
X113403142Y-116609857D01*
X113450761Y-116800333D01*
X113450761Y-117038428D01*
X113403142Y-117228904D01*
X113355523Y-117324142D01*
X113307904Y-117371761D01*
X113212666Y-117419380D01*
X113117428Y-117419380D01*
X113022190Y-117371761D01*
X112974571Y-117324142D01*
X112926952Y-117228904D01*
X112879333Y-117038428D01*
X112879333Y-116800333D01*
X112926952Y-116609857D01*
X112974571Y-116514619D01*
X113022190Y-116467000D01*
X113117428Y-116419380D01*
X114069809Y-116419380D02*
X114165047Y-116419380D01*
X114260285Y-116467000D01*
X114307904Y-116514619D01*
X114355523Y-116609857D01*
X114403142Y-116800333D01*
X114403142Y-117038428D01*
X114355523Y-117228904D01*
X114307904Y-117324142D01*
X114260285Y-117371761D01*
X114165047Y-117419380D01*
X114069809Y-117419380D01*
X113974571Y-117371761D01*
X113926952Y-117324142D01*
X113879333Y-117228904D01*
X113831714Y-117038428D01*
X113831714Y-116800333D01*
X113879333Y-116609857D01*
X113926952Y-116514619D01*
X113974571Y-116467000D01*
X114069809Y-116419380D01*
X115260285Y-116752714D02*
X115260285Y-117419380D01*
X114831714Y-116752714D02*
X114831714Y-117276523D01*
X114879333Y-117371761D01*
X114974571Y-117419380D01*
X115117428Y-117419380D01*
X115212666Y-117371761D01*
X115260285Y-117324142D01*
X116069809Y-116895571D02*
X115736476Y-116895571D01*
X115736476Y-117419380D02*
X115736476Y-116419380D01*
X116212666Y-116419380D01*
X116038380Y-114935000D02*
X116276476Y-114935000D01*
X116181238Y-115173095D02*
X116276476Y-114935000D01*
X116181238Y-114696904D01*
X116466952Y-115077857D02*
X116276476Y-114935000D01*
X116466952Y-114792142D01*
%TO.C,C12*%
X118086142Y-87764857D02*
X118133761Y-87812476D01*
X118181380Y-87955333D01*
X118181380Y-88050571D01*
X118133761Y-88193428D01*
X118038523Y-88288666D01*
X117943285Y-88336285D01*
X117752809Y-88383904D01*
X117609952Y-88383904D01*
X117419476Y-88336285D01*
X117324238Y-88288666D01*
X117229000Y-88193428D01*
X117181380Y-88050571D01*
X117181380Y-87955333D01*
X117229000Y-87812476D01*
X117276619Y-87764857D01*
X118181380Y-86812476D02*
X118181380Y-87383904D01*
X118181380Y-87098190D02*
X117181380Y-87098190D01*
X117324238Y-87193428D01*
X117419476Y-87288666D01*
X117467095Y-87383904D01*
X117276619Y-86431523D02*
X117229000Y-86383904D01*
X117181380Y-86288666D01*
X117181380Y-86050571D01*
X117229000Y-85955333D01*
X117276619Y-85907714D01*
X117371857Y-85860095D01*
X117467095Y-85860095D01*
X117609952Y-85907714D01*
X118181380Y-86479142D01*
X118181380Y-85860095D01*
%TO.C,C13*%
X118086142Y-100464857D02*
X118133761Y-100512476D01*
X118181380Y-100655333D01*
X118181380Y-100750571D01*
X118133761Y-100893428D01*
X118038523Y-100988666D01*
X117943285Y-101036285D01*
X117752809Y-101083904D01*
X117609952Y-101083904D01*
X117419476Y-101036285D01*
X117324238Y-100988666D01*
X117229000Y-100893428D01*
X117181380Y-100750571D01*
X117181380Y-100655333D01*
X117229000Y-100512476D01*
X117276619Y-100464857D01*
X118181380Y-99512476D02*
X118181380Y-100083904D01*
X118181380Y-99798190D02*
X117181380Y-99798190D01*
X117324238Y-99893428D01*
X117419476Y-99988666D01*
X117467095Y-100083904D01*
X117181380Y-99179142D02*
X117181380Y-98560095D01*
X117562333Y-98893428D01*
X117562333Y-98750571D01*
X117609952Y-98655333D01*
X117657571Y-98607714D01*
X117752809Y-98560095D01*
X117990904Y-98560095D01*
X118086142Y-98607714D01*
X118133761Y-98655333D01*
X118181380Y-98750571D01*
X118181380Y-99036285D01*
X118133761Y-99131523D01*
X118086142Y-99179142D01*
%TO.C,C14*%
X118086142Y-62237857D02*
X118133761Y-62285476D01*
X118181380Y-62428333D01*
X118181380Y-62523571D01*
X118133761Y-62666428D01*
X118038523Y-62761666D01*
X117943285Y-62809285D01*
X117752809Y-62856904D01*
X117609952Y-62856904D01*
X117419476Y-62809285D01*
X117324238Y-62761666D01*
X117229000Y-62666428D01*
X117181380Y-62523571D01*
X117181380Y-62428333D01*
X117229000Y-62285476D01*
X117276619Y-62237857D01*
X118181380Y-61285476D02*
X118181380Y-61856904D01*
X118181380Y-61571190D02*
X117181380Y-61571190D01*
X117324238Y-61666428D01*
X117419476Y-61761666D01*
X117467095Y-61856904D01*
X117514714Y-60428333D02*
X118181380Y-60428333D01*
X117133761Y-60666428D02*
X117848047Y-60904523D01*
X117848047Y-60285476D01*
%TO.C,C15*%
X118086142Y-74937857D02*
X118133761Y-74985476D01*
X118181380Y-75128333D01*
X118181380Y-75223571D01*
X118133761Y-75366428D01*
X118038523Y-75461666D01*
X117943285Y-75509285D01*
X117752809Y-75556904D01*
X117609952Y-75556904D01*
X117419476Y-75509285D01*
X117324238Y-75461666D01*
X117229000Y-75366428D01*
X117181380Y-75223571D01*
X117181380Y-75128333D01*
X117229000Y-74985476D01*
X117276619Y-74937857D01*
X118181380Y-73985476D02*
X118181380Y-74556904D01*
X118181380Y-74271190D02*
X117181380Y-74271190D01*
X117324238Y-74366428D01*
X117419476Y-74461666D01*
X117467095Y-74556904D01*
X117181380Y-73080714D02*
X117181380Y-73556904D01*
X117657571Y-73604523D01*
X117609952Y-73556904D01*
X117562333Y-73461666D01*
X117562333Y-73223571D01*
X117609952Y-73128333D01*
X117657571Y-73080714D01*
X117752809Y-73033095D01*
X117990904Y-73033095D01*
X118086142Y-73080714D01*
X118133761Y-73128333D01*
X118181380Y-73223571D01*
X118181380Y-73461666D01*
X118133761Y-73556904D01*
X118086142Y-73604523D01*
%TO.C,C16*%
X118086142Y-113164857D02*
X118133761Y-113212476D01*
X118181380Y-113355333D01*
X118181380Y-113450571D01*
X118133761Y-113593428D01*
X118038523Y-113688666D01*
X117943285Y-113736285D01*
X117752809Y-113783904D01*
X117609952Y-113783904D01*
X117419476Y-113736285D01*
X117324238Y-113688666D01*
X117229000Y-113593428D01*
X117181380Y-113450571D01*
X117181380Y-113355333D01*
X117229000Y-113212476D01*
X117276619Y-113164857D01*
X118181380Y-112212476D02*
X118181380Y-112783904D01*
X118181380Y-112498190D02*
X117181380Y-112498190D01*
X117324238Y-112593428D01*
X117419476Y-112688666D01*
X117467095Y-112783904D01*
X117181380Y-111355333D02*
X117181380Y-111545809D01*
X117229000Y-111641047D01*
X117276619Y-111688666D01*
X117419476Y-111783904D01*
X117609952Y-111831523D01*
X117990904Y-111831523D01*
X118086142Y-111783904D01*
X118133761Y-111736285D01*
X118181380Y-111641047D01*
X118181380Y-111450571D01*
X118133761Y-111355333D01*
X118086142Y-111307714D01*
X117990904Y-111260095D01*
X117752809Y-111260095D01*
X117657571Y-111307714D01*
X117609952Y-111355333D01*
X117562333Y-111450571D01*
X117562333Y-111641047D01*
X117609952Y-111736285D01*
X117657571Y-111783904D01*
X117752809Y-111831523D01*
%TO.C,C17*%
X153662142Y-61952142D02*
X153614523Y-61999761D01*
X153471666Y-62047380D01*
X153376428Y-62047380D01*
X153233571Y-61999761D01*
X153138333Y-61904523D01*
X153090714Y-61809285D01*
X153043095Y-61618809D01*
X153043095Y-61475952D01*
X153090714Y-61285476D01*
X153138333Y-61190238D01*
X153233571Y-61095000D01*
X153376428Y-61047380D01*
X153471666Y-61047380D01*
X153614523Y-61095000D01*
X153662142Y-61142619D01*
X154614523Y-62047380D02*
X154043095Y-62047380D01*
X154328809Y-62047380D02*
X154328809Y-61047380D01*
X154233571Y-61190238D01*
X154138333Y-61285476D01*
X154043095Y-61333095D01*
X154947857Y-61047380D02*
X155614523Y-61047380D01*
X155185952Y-62047380D01*
%TO.C,C18*%
X153662142Y-74652142D02*
X153614523Y-74699761D01*
X153471666Y-74747380D01*
X153376428Y-74747380D01*
X153233571Y-74699761D01*
X153138333Y-74604523D01*
X153090714Y-74509285D01*
X153043095Y-74318809D01*
X153043095Y-74175952D01*
X153090714Y-73985476D01*
X153138333Y-73890238D01*
X153233571Y-73795000D01*
X153376428Y-73747380D01*
X153471666Y-73747380D01*
X153614523Y-73795000D01*
X153662142Y-73842619D01*
X154614523Y-74747380D02*
X154043095Y-74747380D01*
X154328809Y-74747380D02*
X154328809Y-73747380D01*
X154233571Y-73890238D01*
X154138333Y-73985476D01*
X154043095Y-74033095D01*
X155185952Y-74175952D02*
X155090714Y-74128333D01*
X155043095Y-74080714D01*
X154995476Y-73985476D01*
X154995476Y-73937857D01*
X155043095Y-73842619D01*
X155090714Y-73795000D01*
X155185952Y-73747380D01*
X155376428Y-73747380D01*
X155471666Y-73795000D01*
X155519285Y-73842619D01*
X155566904Y-73937857D01*
X155566904Y-73985476D01*
X155519285Y-74080714D01*
X155471666Y-74128333D01*
X155376428Y-74175952D01*
X155185952Y-74175952D01*
X155090714Y-74223571D01*
X155043095Y-74271190D01*
X154995476Y-74366428D01*
X154995476Y-74556904D01*
X155043095Y-74652142D01*
X155090714Y-74699761D01*
X155185952Y-74747380D01*
X155376428Y-74747380D01*
X155471666Y-74699761D01*
X155519285Y-74652142D01*
X155566904Y-74556904D01*
X155566904Y-74366428D01*
X155519285Y-74271190D01*
X155471666Y-74223571D01*
X155376428Y-74175952D01*
%TO.C,C19*%
X153789142Y-87225142D02*
X153741523Y-87272761D01*
X153598666Y-87320380D01*
X153503428Y-87320380D01*
X153360571Y-87272761D01*
X153265333Y-87177523D01*
X153217714Y-87082285D01*
X153170095Y-86891809D01*
X153170095Y-86748952D01*
X153217714Y-86558476D01*
X153265333Y-86463238D01*
X153360571Y-86368000D01*
X153503428Y-86320380D01*
X153598666Y-86320380D01*
X153741523Y-86368000D01*
X153789142Y-86415619D01*
X154741523Y-87320380D02*
X154170095Y-87320380D01*
X154455809Y-87320380D02*
X154455809Y-86320380D01*
X154360571Y-86463238D01*
X154265333Y-86558476D01*
X154170095Y-86606095D01*
X155217714Y-87320380D02*
X155408190Y-87320380D01*
X155503428Y-87272761D01*
X155551047Y-87225142D01*
X155646285Y-87082285D01*
X155693904Y-86891809D01*
X155693904Y-86510857D01*
X155646285Y-86415619D01*
X155598666Y-86368000D01*
X155503428Y-86320380D01*
X155312952Y-86320380D01*
X155217714Y-86368000D01*
X155170095Y-86415619D01*
X155122476Y-86510857D01*
X155122476Y-86748952D01*
X155170095Y-86844190D01*
X155217714Y-86891809D01*
X155312952Y-86939428D01*
X155503428Y-86939428D01*
X155598666Y-86891809D01*
X155646285Y-86844190D01*
X155693904Y-86748952D01*
%TO.C,C20*%
X153662142Y-100052142D02*
X153614523Y-100099761D01*
X153471666Y-100147380D01*
X153376428Y-100147380D01*
X153233571Y-100099761D01*
X153138333Y-100004523D01*
X153090714Y-99909285D01*
X153043095Y-99718809D01*
X153043095Y-99575952D01*
X153090714Y-99385476D01*
X153138333Y-99290238D01*
X153233571Y-99195000D01*
X153376428Y-99147380D01*
X153471666Y-99147380D01*
X153614523Y-99195000D01*
X153662142Y-99242619D01*
X154043095Y-99242619D02*
X154090714Y-99195000D01*
X154185952Y-99147380D01*
X154424047Y-99147380D01*
X154519285Y-99195000D01*
X154566904Y-99242619D01*
X154614523Y-99337857D01*
X154614523Y-99433095D01*
X154566904Y-99575952D01*
X153995476Y-100147380D01*
X154614523Y-100147380D01*
X155233571Y-99147380D02*
X155328809Y-99147380D01*
X155424047Y-99195000D01*
X155471666Y-99242619D01*
X155519285Y-99337857D01*
X155566904Y-99528333D01*
X155566904Y-99766428D01*
X155519285Y-99956904D01*
X155471666Y-100052142D01*
X155424047Y-100099761D01*
X155328809Y-100147380D01*
X155233571Y-100147380D01*
X155138333Y-100099761D01*
X155090714Y-100052142D01*
X155043095Y-99956904D01*
X154995476Y-99766428D01*
X154995476Y-99528333D01*
X155043095Y-99337857D01*
X155090714Y-99242619D01*
X155138333Y-99195000D01*
X155233571Y-99147380D01*
%TO.C,C22*%
X151487142Y-65666857D02*
X151534761Y-65714476D01*
X151582380Y-65857333D01*
X151582380Y-65952571D01*
X151534761Y-66095428D01*
X151439523Y-66190666D01*
X151344285Y-66238285D01*
X151153809Y-66285904D01*
X151010952Y-66285904D01*
X150820476Y-66238285D01*
X150725238Y-66190666D01*
X150630000Y-66095428D01*
X150582380Y-65952571D01*
X150582380Y-65857333D01*
X150630000Y-65714476D01*
X150677619Y-65666857D01*
X150677619Y-65285904D02*
X150630000Y-65238285D01*
X150582380Y-65143047D01*
X150582380Y-64904952D01*
X150630000Y-64809714D01*
X150677619Y-64762095D01*
X150772857Y-64714476D01*
X150868095Y-64714476D01*
X151010952Y-64762095D01*
X151582380Y-65333523D01*
X151582380Y-64714476D01*
X150677619Y-64333523D02*
X150630000Y-64285904D01*
X150582380Y-64190666D01*
X150582380Y-63952571D01*
X150630000Y-63857333D01*
X150677619Y-63809714D01*
X150772857Y-63762095D01*
X150868095Y-63762095D01*
X151010952Y-63809714D01*
X151582380Y-64381142D01*
X151582380Y-63762095D01*
X151106380Y-69921380D02*
X150534952Y-69921380D01*
X150820666Y-69921380D02*
X150820666Y-68921380D01*
X150725428Y-69064238D01*
X150630190Y-69159476D01*
X150534952Y-69207095D01*
X151725428Y-68921380D02*
X151820666Y-68921380D01*
X151915904Y-68969000D01*
X151963523Y-69016619D01*
X152011142Y-69111857D01*
X152058761Y-69302333D01*
X152058761Y-69540428D01*
X152011142Y-69730904D01*
X151963523Y-69826142D01*
X151915904Y-69873761D01*
X151820666Y-69921380D01*
X151725428Y-69921380D01*
X151630190Y-69873761D01*
X151582571Y-69826142D01*
X151534952Y-69730904D01*
X151487333Y-69540428D01*
X151487333Y-69302333D01*
X151534952Y-69111857D01*
X151582571Y-69016619D01*
X151630190Y-68969000D01*
X151725428Y-68921380D01*
X152677809Y-68921380D02*
X152773047Y-68921380D01*
X152868285Y-68969000D01*
X152915904Y-69016619D01*
X152963523Y-69111857D01*
X153011142Y-69302333D01*
X153011142Y-69540428D01*
X152963523Y-69730904D01*
X152915904Y-69826142D01*
X152868285Y-69873761D01*
X152773047Y-69921380D01*
X152677809Y-69921380D01*
X152582571Y-69873761D01*
X152534952Y-69826142D01*
X152487333Y-69730904D01*
X152439714Y-69540428D01*
X152439714Y-69302333D01*
X152487333Y-69111857D01*
X152534952Y-69016619D01*
X152582571Y-68969000D01*
X152677809Y-68921380D01*
X153868285Y-69254714D02*
X153868285Y-69921380D01*
X153439714Y-69254714D02*
X153439714Y-69778523D01*
X153487333Y-69873761D01*
X153582571Y-69921380D01*
X153725428Y-69921380D01*
X153820666Y-69873761D01*
X153868285Y-69826142D01*
X154677809Y-69397571D02*
X154344476Y-69397571D01*
X154344476Y-69921380D02*
X154344476Y-68921380D01*
X154820666Y-68921380D01*
X149566380Y-71501000D02*
X149804476Y-71501000D01*
X149709238Y-71739095D02*
X149804476Y-71501000D01*
X149709238Y-71262904D01*
X149994952Y-71643857D02*
X149804476Y-71501000D01*
X149994952Y-71358142D01*
%TO.C,C23*%
X151233142Y-78366857D02*
X151280761Y-78414476D01*
X151328380Y-78557333D01*
X151328380Y-78652571D01*
X151280761Y-78795428D01*
X151185523Y-78890666D01*
X151090285Y-78938285D01*
X150899809Y-78985904D01*
X150756952Y-78985904D01*
X150566476Y-78938285D01*
X150471238Y-78890666D01*
X150376000Y-78795428D01*
X150328380Y-78652571D01*
X150328380Y-78557333D01*
X150376000Y-78414476D01*
X150423619Y-78366857D01*
X150423619Y-77985904D02*
X150376000Y-77938285D01*
X150328380Y-77843047D01*
X150328380Y-77604952D01*
X150376000Y-77509714D01*
X150423619Y-77462095D01*
X150518857Y-77414476D01*
X150614095Y-77414476D01*
X150756952Y-77462095D01*
X151328380Y-78033523D01*
X151328380Y-77414476D01*
X150328380Y-77081142D02*
X150328380Y-76462095D01*
X150709333Y-76795428D01*
X150709333Y-76652571D01*
X150756952Y-76557333D01*
X150804571Y-76509714D01*
X150899809Y-76462095D01*
X151137904Y-76462095D01*
X151233142Y-76509714D01*
X151280761Y-76557333D01*
X151328380Y-76652571D01*
X151328380Y-76938285D01*
X151280761Y-77033523D01*
X151233142Y-77081142D01*
X151106380Y-82621380D02*
X150534952Y-82621380D01*
X150820666Y-82621380D02*
X150820666Y-81621380D01*
X150725428Y-81764238D01*
X150630190Y-81859476D01*
X150534952Y-81907095D01*
X151725428Y-81621380D02*
X151820666Y-81621380D01*
X151915904Y-81669000D01*
X151963523Y-81716619D01*
X152011142Y-81811857D01*
X152058761Y-82002333D01*
X152058761Y-82240428D01*
X152011142Y-82430904D01*
X151963523Y-82526142D01*
X151915904Y-82573761D01*
X151820666Y-82621380D01*
X151725428Y-82621380D01*
X151630190Y-82573761D01*
X151582571Y-82526142D01*
X151534952Y-82430904D01*
X151487333Y-82240428D01*
X151487333Y-82002333D01*
X151534952Y-81811857D01*
X151582571Y-81716619D01*
X151630190Y-81669000D01*
X151725428Y-81621380D01*
X152677809Y-81621380D02*
X152773047Y-81621380D01*
X152868285Y-81669000D01*
X152915904Y-81716619D01*
X152963523Y-81811857D01*
X153011142Y-82002333D01*
X153011142Y-82240428D01*
X152963523Y-82430904D01*
X152915904Y-82526142D01*
X152868285Y-82573761D01*
X152773047Y-82621380D01*
X152677809Y-82621380D01*
X152582571Y-82573761D01*
X152534952Y-82526142D01*
X152487333Y-82430904D01*
X152439714Y-82240428D01*
X152439714Y-82002333D01*
X152487333Y-81811857D01*
X152534952Y-81716619D01*
X152582571Y-81669000D01*
X152677809Y-81621380D01*
X153868285Y-81954714D02*
X153868285Y-82621380D01*
X153439714Y-81954714D02*
X153439714Y-82478523D01*
X153487333Y-82573761D01*
X153582571Y-82621380D01*
X153725428Y-82621380D01*
X153820666Y-82573761D01*
X153868285Y-82526142D01*
X154677809Y-82097571D02*
X154344476Y-82097571D01*
X154344476Y-82621380D02*
X154344476Y-81621380D01*
X154820666Y-81621380D01*
X149566380Y-84201000D02*
X149804476Y-84201000D01*
X149709238Y-84439095D02*
X149804476Y-84201000D01*
X149709238Y-83962904D01*
X149994952Y-84343857D02*
X149804476Y-84201000D01*
X149994952Y-84058142D01*
%TO.C,C24*%
X151360142Y-90939857D02*
X151407761Y-90987476D01*
X151455380Y-91130333D01*
X151455380Y-91225571D01*
X151407761Y-91368428D01*
X151312523Y-91463666D01*
X151217285Y-91511285D01*
X151026809Y-91558904D01*
X150883952Y-91558904D01*
X150693476Y-91511285D01*
X150598238Y-91463666D01*
X150503000Y-91368428D01*
X150455380Y-91225571D01*
X150455380Y-91130333D01*
X150503000Y-90987476D01*
X150550619Y-90939857D01*
X150550619Y-90558904D02*
X150503000Y-90511285D01*
X150455380Y-90416047D01*
X150455380Y-90177952D01*
X150503000Y-90082714D01*
X150550619Y-90035095D01*
X150645857Y-89987476D01*
X150741095Y-89987476D01*
X150883952Y-90035095D01*
X151455380Y-90606523D01*
X151455380Y-89987476D01*
X150788714Y-89130333D02*
X151455380Y-89130333D01*
X150407761Y-89368428D02*
X151122047Y-89606523D01*
X151122047Y-88987476D01*
X151106380Y-95321380D02*
X150534952Y-95321380D01*
X150820666Y-95321380D02*
X150820666Y-94321380D01*
X150725428Y-94464238D01*
X150630190Y-94559476D01*
X150534952Y-94607095D01*
X151725428Y-94321380D02*
X151820666Y-94321380D01*
X151915904Y-94369000D01*
X151963523Y-94416619D01*
X152011142Y-94511857D01*
X152058761Y-94702333D01*
X152058761Y-94940428D01*
X152011142Y-95130904D01*
X151963523Y-95226142D01*
X151915904Y-95273761D01*
X151820666Y-95321380D01*
X151725428Y-95321380D01*
X151630190Y-95273761D01*
X151582571Y-95226142D01*
X151534952Y-95130904D01*
X151487333Y-94940428D01*
X151487333Y-94702333D01*
X151534952Y-94511857D01*
X151582571Y-94416619D01*
X151630190Y-94369000D01*
X151725428Y-94321380D01*
X152677809Y-94321380D02*
X152773047Y-94321380D01*
X152868285Y-94369000D01*
X152915904Y-94416619D01*
X152963523Y-94511857D01*
X153011142Y-94702333D01*
X153011142Y-94940428D01*
X152963523Y-95130904D01*
X152915904Y-95226142D01*
X152868285Y-95273761D01*
X152773047Y-95321380D01*
X152677809Y-95321380D01*
X152582571Y-95273761D01*
X152534952Y-95226142D01*
X152487333Y-95130904D01*
X152439714Y-94940428D01*
X152439714Y-94702333D01*
X152487333Y-94511857D01*
X152534952Y-94416619D01*
X152582571Y-94369000D01*
X152677809Y-94321380D01*
X153868285Y-94654714D02*
X153868285Y-95321380D01*
X153439714Y-94654714D02*
X153439714Y-95178523D01*
X153487333Y-95273761D01*
X153582571Y-95321380D01*
X153725428Y-95321380D01*
X153820666Y-95273761D01*
X153868285Y-95226142D01*
X154677809Y-94797571D02*
X154344476Y-94797571D01*
X154344476Y-95321380D02*
X154344476Y-94321380D01*
X154820666Y-94321380D01*
X149566380Y-96901000D02*
X149804476Y-96901000D01*
X149709238Y-97139095D02*
X149804476Y-96901000D01*
X149709238Y-96662904D01*
X149994952Y-97043857D02*
X149804476Y-96901000D01*
X149994952Y-96758142D01*
%TO.C,C25*%
X151360142Y-103766857D02*
X151407761Y-103814476D01*
X151455380Y-103957333D01*
X151455380Y-104052571D01*
X151407761Y-104195428D01*
X151312523Y-104290666D01*
X151217285Y-104338285D01*
X151026809Y-104385904D01*
X150883952Y-104385904D01*
X150693476Y-104338285D01*
X150598238Y-104290666D01*
X150503000Y-104195428D01*
X150455380Y-104052571D01*
X150455380Y-103957333D01*
X150503000Y-103814476D01*
X150550619Y-103766857D01*
X150550619Y-103385904D02*
X150503000Y-103338285D01*
X150455380Y-103243047D01*
X150455380Y-103004952D01*
X150503000Y-102909714D01*
X150550619Y-102862095D01*
X150645857Y-102814476D01*
X150741095Y-102814476D01*
X150883952Y-102862095D01*
X151455380Y-103433523D01*
X151455380Y-102814476D01*
X150455380Y-101909714D02*
X150455380Y-102385904D01*
X150931571Y-102433523D01*
X150883952Y-102385904D01*
X150836333Y-102290666D01*
X150836333Y-102052571D01*
X150883952Y-101957333D01*
X150931571Y-101909714D01*
X151026809Y-101862095D01*
X151264904Y-101862095D01*
X151360142Y-101909714D01*
X151407761Y-101957333D01*
X151455380Y-102052571D01*
X151455380Y-102290666D01*
X151407761Y-102385904D01*
X151360142Y-102433523D01*
X151106380Y-108021380D02*
X150534952Y-108021380D01*
X150820666Y-108021380D02*
X150820666Y-107021380D01*
X150725428Y-107164238D01*
X150630190Y-107259476D01*
X150534952Y-107307095D01*
X151725428Y-107021380D02*
X151820666Y-107021380D01*
X151915904Y-107069000D01*
X151963523Y-107116619D01*
X152011142Y-107211857D01*
X152058761Y-107402333D01*
X152058761Y-107640428D01*
X152011142Y-107830904D01*
X151963523Y-107926142D01*
X151915904Y-107973761D01*
X151820666Y-108021380D01*
X151725428Y-108021380D01*
X151630190Y-107973761D01*
X151582571Y-107926142D01*
X151534952Y-107830904D01*
X151487333Y-107640428D01*
X151487333Y-107402333D01*
X151534952Y-107211857D01*
X151582571Y-107116619D01*
X151630190Y-107069000D01*
X151725428Y-107021380D01*
X152677809Y-107021380D02*
X152773047Y-107021380D01*
X152868285Y-107069000D01*
X152915904Y-107116619D01*
X152963523Y-107211857D01*
X153011142Y-107402333D01*
X153011142Y-107640428D01*
X152963523Y-107830904D01*
X152915904Y-107926142D01*
X152868285Y-107973761D01*
X152773047Y-108021380D01*
X152677809Y-108021380D01*
X152582571Y-107973761D01*
X152534952Y-107926142D01*
X152487333Y-107830904D01*
X152439714Y-107640428D01*
X152439714Y-107402333D01*
X152487333Y-107211857D01*
X152534952Y-107116619D01*
X152582571Y-107069000D01*
X152677809Y-107021380D01*
X153868285Y-107354714D02*
X153868285Y-108021380D01*
X153439714Y-107354714D02*
X153439714Y-107878523D01*
X153487333Y-107973761D01*
X153582571Y-108021380D01*
X153725428Y-108021380D01*
X153820666Y-107973761D01*
X153868285Y-107926142D01*
X154677809Y-107497571D02*
X154344476Y-107497571D01*
X154344476Y-108021380D02*
X154344476Y-107021380D01*
X154820666Y-107021380D01*
X149566380Y-109601000D02*
X149804476Y-109601000D01*
X149709238Y-109839095D02*
X149804476Y-109601000D01*
X149709238Y-109362904D01*
X149994952Y-109743857D02*
X149804476Y-109601000D01*
X149994952Y-109458142D01*
%TO.C,C26*%
X150979142Y-114815857D02*
X151026761Y-114863476D01*
X151074380Y-115006333D01*
X151074380Y-115101571D01*
X151026761Y-115244428D01*
X150931523Y-115339666D01*
X150836285Y-115387285D01*
X150645809Y-115434904D01*
X150502952Y-115434904D01*
X150312476Y-115387285D01*
X150217238Y-115339666D01*
X150122000Y-115244428D01*
X150074380Y-115101571D01*
X150074380Y-115006333D01*
X150122000Y-114863476D01*
X150169619Y-114815857D01*
X150169619Y-114434904D02*
X150122000Y-114387285D01*
X150074380Y-114292047D01*
X150074380Y-114053952D01*
X150122000Y-113958714D01*
X150169619Y-113911095D01*
X150264857Y-113863476D01*
X150360095Y-113863476D01*
X150502952Y-113911095D01*
X151074380Y-114482523D01*
X151074380Y-113863476D01*
X150074380Y-113006333D02*
X150074380Y-113196809D01*
X150122000Y-113292047D01*
X150169619Y-113339666D01*
X150312476Y-113434904D01*
X150502952Y-113482523D01*
X150883904Y-113482523D01*
X150979142Y-113434904D01*
X151026761Y-113387285D01*
X151074380Y-113292047D01*
X151074380Y-113101571D01*
X151026761Y-113006333D01*
X150979142Y-112958714D01*
X150883904Y-112911095D01*
X150645809Y-112911095D01*
X150550571Y-112958714D01*
X150502952Y-113006333D01*
X150455333Y-113101571D01*
X150455333Y-113292047D01*
X150502952Y-113387285D01*
X150550571Y-113434904D01*
X150645809Y-113482523D01*
X150725380Y-119070380D02*
X150153952Y-119070380D01*
X150439666Y-119070380D02*
X150439666Y-118070380D01*
X150344428Y-118213238D01*
X150249190Y-118308476D01*
X150153952Y-118356095D01*
X151344428Y-118070380D02*
X151439666Y-118070380D01*
X151534904Y-118118000D01*
X151582523Y-118165619D01*
X151630142Y-118260857D01*
X151677761Y-118451333D01*
X151677761Y-118689428D01*
X151630142Y-118879904D01*
X151582523Y-118975142D01*
X151534904Y-119022761D01*
X151439666Y-119070380D01*
X151344428Y-119070380D01*
X151249190Y-119022761D01*
X151201571Y-118975142D01*
X151153952Y-118879904D01*
X151106333Y-118689428D01*
X151106333Y-118451333D01*
X151153952Y-118260857D01*
X151201571Y-118165619D01*
X151249190Y-118118000D01*
X151344428Y-118070380D01*
X152296809Y-118070380D02*
X152392047Y-118070380D01*
X152487285Y-118118000D01*
X152534904Y-118165619D01*
X152582523Y-118260857D01*
X152630142Y-118451333D01*
X152630142Y-118689428D01*
X152582523Y-118879904D01*
X152534904Y-118975142D01*
X152487285Y-119022761D01*
X152392047Y-119070380D01*
X152296809Y-119070380D01*
X152201571Y-119022761D01*
X152153952Y-118975142D01*
X152106333Y-118879904D01*
X152058714Y-118689428D01*
X152058714Y-118451333D01*
X152106333Y-118260857D01*
X152153952Y-118165619D01*
X152201571Y-118118000D01*
X152296809Y-118070380D01*
X153487285Y-118403714D02*
X153487285Y-119070380D01*
X153058714Y-118403714D02*
X153058714Y-118927523D01*
X153106333Y-119022761D01*
X153201571Y-119070380D01*
X153344428Y-119070380D01*
X153439666Y-119022761D01*
X153487285Y-118975142D01*
X154296809Y-118546571D02*
X153963476Y-118546571D01*
X153963476Y-119070380D02*
X153963476Y-118070380D01*
X154439666Y-118070380D01*
X154265380Y-116586000D02*
X154503476Y-116586000D01*
X154408238Y-116824095D02*
X154503476Y-116586000D01*
X154408238Y-116347904D01*
X154693952Y-116728857D02*
X154503476Y-116586000D01*
X154693952Y-116443142D01*
%TO.C,C27*%
X149328142Y-74683857D02*
X149375761Y-74731476D01*
X149423380Y-74874333D01*
X149423380Y-74969571D01*
X149375761Y-75112428D01*
X149280523Y-75207666D01*
X149185285Y-75255285D01*
X148994809Y-75302904D01*
X148851952Y-75302904D01*
X148661476Y-75255285D01*
X148566238Y-75207666D01*
X148471000Y-75112428D01*
X148423380Y-74969571D01*
X148423380Y-74874333D01*
X148471000Y-74731476D01*
X148518619Y-74683857D01*
X148518619Y-74302904D02*
X148471000Y-74255285D01*
X148423380Y-74160047D01*
X148423380Y-73921952D01*
X148471000Y-73826714D01*
X148518619Y-73779095D01*
X148613857Y-73731476D01*
X148709095Y-73731476D01*
X148851952Y-73779095D01*
X149423380Y-74350523D01*
X149423380Y-73731476D01*
X148423380Y-73398142D02*
X148423380Y-72731476D01*
X149423380Y-73160047D01*
%TO.C,C28*%
X149328142Y-87256857D02*
X149375761Y-87304476D01*
X149423380Y-87447333D01*
X149423380Y-87542571D01*
X149375761Y-87685428D01*
X149280523Y-87780666D01*
X149185285Y-87828285D01*
X148994809Y-87875904D01*
X148851952Y-87875904D01*
X148661476Y-87828285D01*
X148566238Y-87780666D01*
X148471000Y-87685428D01*
X148423380Y-87542571D01*
X148423380Y-87447333D01*
X148471000Y-87304476D01*
X148518619Y-87256857D01*
X148518619Y-86875904D02*
X148471000Y-86828285D01*
X148423380Y-86733047D01*
X148423380Y-86494952D01*
X148471000Y-86399714D01*
X148518619Y-86352095D01*
X148613857Y-86304476D01*
X148709095Y-86304476D01*
X148851952Y-86352095D01*
X149423380Y-86923523D01*
X149423380Y-86304476D01*
X148851952Y-85733047D02*
X148804333Y-85828285D01*
X148756714Y-85875904D01*
X148661476Y-85923523D01*
X148613857Y-85923523D01*
X148518619Y-85875904D01*
X148471000Y-85828285D01*
X148423380Y-85733047D01*
X148423380Y-85542571D01*
X148471000Y-85447333D01*
X148518619Y-85399714D01*
X148613857Y-85352095D01*
X148661476Y-85352095D01*
X148756714Y-85399714D01*
X148804333Y-85447333D01*
X148851952Y-85542571D01*
X148851952Y-85733047D01*
X148899571Y-85828285D01*
X148947190Y-85875904D01*
X149042428Y-85923523D01*
X149232904Y-85923523D01*
X149328142Y-85875904D01*
X149375761Y-85828285D01*
X149423380Y-85733047D01*
X149423380Y-85542571D01*
X149375761Y-85447333D01*
X149328142Y-85399714D01*
X149232904Y-85352095D01*
X149042428Y-85352095D01*
X148947190Y-85399714D01*
X148899571Y-85447333D01*
X148851952Y-85542571D01*
%TO.C,C29*%
X149328142Y-100083857D02*
X149375761Y-100131476D01*
X149423380Y-100274333D01*
X149423380Y-100369571D01*
X149375761Y-100512428D01*
X149280523Y-100607666D01*
X149185285Y-100655285D01*
X148994809Y-100702904D01*
X148851952Y-100702904D01*
X148661476Y-100655285D01*
X148566238Y-100607666D01*
X148471000Y-100512428D01*
X148423380Y-100369571D01*
X148423380Y-100274333D01*
X148471000Y-100131476D01*
X148518619Y-100083857D01*
X148518619Y-99702904D02*
X148471000Y-99655285D01*
X148423380Y-99560047D01*
X148423380Y-99321952D01*
X148471000Y-99226714D01*
X148518619Y-99179095D01*
X148613857Y-99131476D01*
X148709095Y-99131476D01*
X148851952Y-99179095D01*
X149423380Y-99750523D01*
X149423380Y-99131476D01*
X149423380Y-98655285D02*
X149423380Y-98464809D01*
X149375761Y-98369571D01*
X149328142Y-98321952D01*
X149185285Y-98226714D01*
X148994809Y-98179095D01*
X148613857Y-98179095D01*
X148518619Y-98226714D01*
X148471000Y-98274333D01*
X148423380Y-98369571D01*
X148423380Y-98560047D01*
X148471000Y-98655285D01*
X148518619Y-98702904D01*
X148613857Y-98750523D01*
X148851952Y-98750523D01*
X148947190Y-98702904D01*
X148994809Y-98655285D01*
X149042428Y-98560047D01*
X149042428Y-98369571D01*
X148994809Y-98274333D01*
X148947190Y-98226714D01*
X148851952Y-98179095D01*
%TO.C,C30*%
X149328142Y-112529857D02*
X149375761Y-112577476D01*
X149423380Y-112720333D01*
X149423380Y-112815571D01*
X149375761Y-112958428D01*
X149280523Y-113053666D01*
X149185285Y-113101285D01*
X148994809Y-113148904D01*
X148851952Y-113148904D01*
X148661476Y-113101285D01*
X148566238Y-113053666D01*
X148471000Y-112958428D01*
X148423380Y-112815571D01*
X148423380Y-112720333D01*
X148471000Y-112577476D01*
X148518619Y-112529857D01*
X148423380Y-112196523D02*
X148423380Y-111577476D01*
X148804333Y-111910809D01*
X148804333Y-111767952D01*
X148851952Y-111672714D01*
X148899571Y-111625095D01*
X148994809Y-111577476D01*
X149232904Y-111577476D01*
X149328142Y-111625095D01*
X149375761Y-111672714D01*
X149423380Y-111767952D01*
X149423380Y-112053666D01*
X149375761Y-112148904D01*
X149328142Y-112196523D01*
X148423380Y-110958428D02*
X148423380Y-110863190D01*
X148471000Y-110767952D01*
X148518619Y-110720333D01*
X148613857Y-110672714D01*
X148804333Y-110625095D01*
X149042428Y-110625095D01*
X149232904Y-110672714D01*
X149328142Y-110720333D01*
X149375761Y-110767952D01*
X149423380Y-110863190D01*
X149423380Y-110958428D01*
X149375761Y-111053666D01*
X149328142Y-111101285D01*
X149232904Y-111148904D01*
X149042428Y-111196523D01*
X148804333Y-111196523D01*
X148613857Y-111148904D01*
X148518619Y-111101285D01*
X148471000Y-111053666D01*
X148423380Y-110958428D01*
%TO.C,C31*%
X148947142Y-114942857D02*
X148994761Y-114990476D01*
X149042380Y-115133333D01*
X149042380Y-115228571D01*
X148994761Y-115371428D01*
X148899523Y-115466666D01*
X148804285Y-115514285D01*
X148613809Y-115561904D01*
X148470952Y-115561904D01*
X148280476Y-115514285D01*
X148185238Y-115466666D01*
X148090000Y-115371428D01*
X148042380Y-115228571D01*
X148042380Y-115133333D01*
X148090000Y-114990476D01*
X148137619Y-114942857D01*
X148042380Y-114609523D02*
X148042380Y-113990476D01*
X148423333Y-114323809D01*
X148423333Y-114180952D01*
X148470952Y-114085714D01*
X148518571Y-114038095D01*
X148613809Y-113990476D01*
X148851904Y-113990476D01*
X148947142Y-114038095D01*
X148994761Y-114085714D01*
X149042380Y-114180952D01*
X149042380Y-114466666D01*
X148994761Y-114561904D01*
X148947142Y-114609523D01*
X149042380Y-113038095D02*
X149042380Y-113609523D01*
X149042380Y-113323809D02*
X148042380Y-113323809D01*
X148185238Y-113419047D01*
X148280476Y-113514285D01*
X148328095Y-113609523D01*
%TO.C,C32*%
X127373142Y-120499142D02*
X127325523Y-120546761D01*
X127182666Y-120594380D01*
X127087428Y-120594380D01*
X126944571Y-120546761D01*
X126849333Y-120451523D01*
X126801714Y-120356285D01*
X126754095Y-120165809D01*
X126754095Y-120022952D01*
X126801714Y-119832476D01*
X126849333Y-119737238D01*
X126944571Y-119642000D01*
X127087428Y-119594380D01*
X127182666Y-119594380D01*
X127325523Y-119642000D01*
X127373142Y-119689619D01*
X127706476Y-119594380D02*
X128325523Y-119594380D01*
X127992190Y-119975333D01*
X128135047Y-119975333D01*
X128230285Y-120022952D01*
X128277904Y-120070571D01*
X128325523Y-120165809D01*
X128325523Y-120403904D01*
X128277904Y-120499142D01*
X128230285Y-120546761D01*
X128135047Y-120594380D01*
X127849333Y-120594380D01*
X127754095Y-120546761D01*
X127706476Y-120499142D01*
X128706476Y-119689619D02*
X128754095Y-119642000D01*
X128849333Y-119594380D01*
X129087428Y-119594380D01*
X129182666Y-119642000D01*
X129230285Y-119689619D01*
X129277904Y-119784857D01*
X129277904Y-119880095D01*
X129230285Y-120022952D01*
X128658857Y-120594380D01*
X129277904Y-120594380D01*
X133040380Y-123467619D02*
X133040380Y-124039047D01*
X133040380Y-123753333D02*
X132040380Y-123753333D01*
X132183238Y-123848571D01*
X132278476Y-123943809D01*
X132326095Y-124039047D01*
X132040380Y-122848571D02*
X132040380Y-122753333D01*
X132088000Y-122658095D01*
X132135619Y-122610476D01*
X132230857Y-122562857D01*
X132421333Y-122515238D01*
X132659428Y-122515238D01*
X132849904Y-122562857D01*
X132945142Y-122610476D01*
X132992761Y-122658095D01*
X133040380Y-122753333D01*
X133040380Y-122848571D01*
X132992761Y-122943809D01*
X132945142Y-122991428D01*
X132849904Y-123039047D01*
X132659428Y-123086666D01*
X132421333Y-123086666D01*
X132230857Y-123039047D01*
X132135619Y-122991428D01*
X132088000Y-122943809D01*
X132040380Y-122848571D01*
X132040380Y-121896190D02*
X132040380Y-121800952D01*
X132088000Y-121705714D01*
X132135619Y-121658095D01*
X132230857Y-121610476D01*
X132421333Y-121562857D01*
X132659428Y-121562857D01*
X132849904Y-121610476D01*
X132945142Y-121658095D01*
X132992761Y-121705714D01*
X133040380Y-121800952D01*
X133040380Y-121896190D01*
X132992761Y-121991428D01*
X132945142Y-122039047D01*
X132849904Y-122086666D01*
X132659428Y-122134285D01*
X132421333Y-122134285D01*
X132230857Y-122086666D01*
X132135619Y-122039047D01*
X132088000Y-121991428D01*
X132040380Y-121896190D01*
X132373714Y-120705714D02*
X133040380Y-120705714D01*
X132373714Y-121134285D02*
X132897523Y-121134285D01*
X132992761Y-121086666D01*
X133040380Y-120991428D01*
X133040380Y-120848571D01*
X132992761Y-120753333D01*
X132945142Y-120705714D01*
X132516571Y-119896190D02*
X132516571Y-120229523D01*
X133040380Y-120229523D02*
X132040380Y-120229523D01*
X132040380Y-119753333D01*
X130556000Y-118832380D02*
X130556000Y-119070476D01*
X130317904Y-118975238D02*
X130556000Y-119070476D01*
X130794095Y-118975238D01*
X130413142Y-119260952D02*
X130556000Y-119070476D01*
X130698857Y-119260952D01*
%TO.C,J1*%
X159472380Y-129365333D02*
X160186666Y-129365333D01*
X160329523Y-129412952D01*
X160424761Y-129508190D01*
X160472380Y-129651047D01*
X160472380Y-129746285D01*
X160472380Y-128365333D02*
X160472380Y-128936761D01*
X160472380Y-128651047D02*
X159472380Y-128651047D01*
X159615238Y-128746285D01*
X159710476Y-128841523D01*
X159758095Y-128936761D01*
%TO.C,J2*%
X108759666Y-99020380D02*
X108759666Y-99734666D01*
X108712047Y-99877523D01*
X108616809Y-99972761D01*
X108473952Y-100020380D01*
X108378714Y-100020380D01*
X109188238Y-99115619D02*
X109235857Y-99068000D01*
X109331095Y-99020380D01*
X109569190Y-99020380D01*
X109664428Y-99068000D01*
X109712047Y-99115619D01*
X109759666Y-99210857D01*
X109759666Y-99306095D01*
X109712047Y-99448952D01*
X109140619Y-100020380D01*
X109759666Y-100020380D01*
%TO.C,J3*%
X108759666Y-111720380D02*
X108759666Y-112434666D01*
X108712047Y-112577523D01*
X108616809Y-112672761D01*
X108473952Y-112720380D01*
X108378714Y-112720380D01*
X109140619Y-111720380D02*
X109759666Y-111720380D01*
X109426333Y-112101333D01*
X109569190Y-112101333D01*
X109664428Y-112148952D01*
X109712047Y-112196571D01*
X109759666Y-112291809D01*
X109759666Y-112529904D01*
X109712047Y-112625142D01*
X109664428Y-112672761D01*
X109569190Y-112720380D01*
X109283476Y-112720380D01*
X109188238Y-112672761D01*
X109140619Y-112625142D01*
%TO.C,J4*%
X108759666Y-73620380D02*
X108759666Y-74334666D01*
X108712047Y-74477523D01*
X108616809Y-74572761D01*
X108473952Y-74620380D01*
X108378714Y-74620380D01*
X109664428Y-73953714D02*
X109664428Y-74620380D01*
X109426333Y-73572761D02*
X109188238Y-74287047D01*
X109807285Y-74287047D01*
%TO.C,J5*%
X108759666Y-86320380D02*
X108759666Y-87034666D01*
X108712047Y-87177523D01*
X108616809Y-87272761D01*
X108473952Y-87320380D01*
X108378714Y-87320380D01*
X109712047Y-86320380D02*
X109235857Y-86320380D01*
X109188238Y-86796571D01*
X109235857Y-86748952D01*
X109331095Y-86701333D01*
X109569190Y-86701333D01*
X109664428Y-86748952D01*
X109712047Y-86796571D01*
X109759666Y-86891809D01*
X109759666Y-87129904D01*
X109712047Y-87225142D01*
X109664428Y-87272761D01*
X109569190Y-87320380D01*
X109331095Y-87320380D01*
X109235857Y-87272761D01*
X109188238Y-87225142D01*
%TO.C,J6*%
X108759666Y-124420380D02*
X108759666Y-125134666D01*
X108712047Y-125277523D01*
X108616809Y-125372761D01*
X108473952Y-125420380D01*
X108378714Y-125420380D01*
X109664428Y-124420380D02*
X109473952Y-124420380D01*
X109378714Y-124468000D01*
X109331095Y-124515619D01*
X109235857Y-124658476D01*
X109188238Y-124848952D01*
X109188238Y-125229904D01*
X109235857Y-125325142D01*
X109283476Y-125372761D01*
X109378714Y-125420380D01*
X109569190Y-125420380D01*
X109664428Y-125372761D01*
X109712047Y-125325142D01*
X109759666Y-125229904D01*
X109759666Y-124991809D01*
X109712047Y-124896571D01*
X109664428Y-124848952D01*
X109569190Y-124801333D01*
X109378714Y-124801333D01*
X109283476Y-124848952D01*
X109235857Y-124896571D01*
X109188238Y-124991809D01*
%TO.C,J7*%
X157273666Y-60920380D02*
X157273666Y-61634666D01*
X157226047Y-61777523D01*
X157130809Y-61872761D01*
X156987952Y-61920380D01*
X156892714Y-61920380D01*
X157654619Y-60920380D02*
X158321285Y-60920380D01*
X157892714Y-61920380D01*
%TO.C,J8*%
X157273666Y-73620380D02*
X157273666Y-74334666D01*
X157226047Y-74477523D01*
X157130809Y-74572761D01*
X156987952Y-74620380D01*
X156892714Y-74620380D01*
X157892714Y-74048952D02*
X157797476Y-74001333D01*
X157749857Y-73953714D01*
X157702238Y-73858476D01*
X157702238Y-73810857D01*
X157749857Y-73715619D01*
X157797476Y-73668000D01*
X157892714Y-73620380D01*
X158083190Y-73620380D01*
X158178428Y-73668000D01*
X158226047Y-73715619D01*
X158273666Y-73810857D01*
X158273666Y-73858476D01*
X158226047Y-73953714D01*
X158178428Y-74001333D01*
X158083190Y-74048952D01*
X157892714Y-74048952D01*
X157797476Y-74096571D01*
X157749857Y-74144190D01*
X157702238Y-74239428D01*
X157702238Y-74429904D01*
X157749857Y-74525142D01*
X157797476Y-74572761D01*
X157892714Y-74620380D01*
X158083190Y-74620380D01*
X158178428Y-74572761D01*
X158226047Y-74525142D01*
X158273666Y-74429904D01*
X158273666Y-74239428D01*
X158226047Y-74144190D01*
X158178428Y-74096571D01*
X158083190Y-74048952D01*
%TO.C,J9*%
X157273666Y-86320380D02*
X157273666Y-87034666D01*
X157226047Y-87177523D01*
X157130809Y-87272761D01*
X156987952Y-87320380D01*
X156892714Y-87320380D01*
X157797476Y-87320380D02*
X157987952Y-87320380D01*
X158083190Y-87272761D01*
X158130809Y-87225142D01*
X158226047Y-87082285D01*
X158273666Y-86891809D01*
X158273666Y-86510857D01*
X158226047Y-86415619D01*
X158178428Y-86368000D01*
X158083190Y-86320380D01*
X157892714Y-86320380D01*
X157797476Y-86368000D01*
X157749857Y-86415619D01*
X157702238Y-86510857D01*
X157702238Y-86748952D01*
X157749857Y-86844190D01*
X157797476Y-86891809D01*
X157892714Y-86939428D01*
X158083190Y-86939428D01*
X158178428Y-86891809D01*
X158226047Y-86844190D01*
X158273666Y-86748952D01*
%TO.C,J10*%
X161182476Y-99290380D02*
X161182476Y-100004666D01*
X161134857Y-100147523D01*
X161039619Y-100242761D01*
X160896761Y-100290380D01*
X160801523Y-100290380D01*
X162182476Y-100290380D02*
X161611047Y-100290380D01*
X161896761Y-100290380D02*
X161896761Y-99290380D01*
X161801523Y-99433238D01*
X161706285Y-99528476D01*
X161611047Y-99576095D01*
X162801523Y-99290380D02*
X162896761Y-99290380D01*
X162992000Y-99338000D01*
X163039619Y-99385619D01*
X163087238Y-99480857D01*
X163134857Y-99671333D01*
X163134857Y-99909428D01*
X163087238Y-100099904D01*
X163039619Y-100195142D01*
X162992000Y-100242761D01*
X162896761Y-100290380D01*
X162801523Y-100290380D01*
X162706285Y-100242761D01*
X162658666Y-100195142D01*
X162611047Y-100099904D01*
X162563428Y-99909428D01*
X162563428Y-99671333D01*
X162611047Y-99480857D01*
X162658666Y-99385619D01*
X162706285Y-99338000D01*
X162801523Y-99290380D01*
%TO.C,J11*%
X163655476Y-125182380D02*
X163655476Y-125896666D01*
X163607857Y-126039523D01*
X163512619Y-126134761D01*
X163369761Y-126182380D01*
X163274523Y-126182380D01*
X164655476Y-126182380D02*
X164084047Y-126182380D01*
X164369761Y-126182380D02*
X164369761Y-125182380D01*
X164274523Y-125325238D01*
X164179285Y-125420476D01*
X164084047Y-125468095D01*
X165607857Y-126182380D02*
X165036428Y-126182380D01*
X165322142Y-126182380D02*
X165322142Y-125182380D01*
X165226904Y-125325238D01*
X165131666Y-125420476D01*
X165036428Y-125468095D01*
%TO.C,J12*%
X115649476Y-124166380D02*
X115649476Y-124880666D01*
X115601857Y-125023523D01*
X115506619Y-125118761D01*
X115363761Y-125166380D01*
X115268523Y-125166380D01*
X116649476Y-125166380D02*
X116078047Y-125166380D01*
X116363761Y-125166380D02*
X116363761Y-124166380D01*
X116268523Y-124309238D01*
X116173285Y-124404476D01*
X116078047Y-124452095D01*
X117030428Y-124261619D02*
X117078047Y-124214000D01*
X117173285Y-124166380D01*
X117411380Y-124166380D01*
X117506619Y-124214000D01*
X117554238Y-124261619D01*
X117601857Y-124356857D01*
X117601857Y-124452095D01*
X117554238Y-124594952D01*
X116982809Y-125166380D01*
X117601857Y-125166380D01*
X125365285Y-132294380D02*
X125174809Y-132294380D01*
X125079571Y-132342000D01*
X125031952Y-132389619D01*
X124936714Y-132532476D01*
X124889095Y-132722952D01*
X124889095Y-133103904D01*
X124936714Y-133199142D01*
X124984333Y-133246761D01*
X125079571Y-133294380D01*
X125270047Y-133294380D01*
X125365285Y-133246761D01*
X125412904Y-133199142D01*
X125460523Y-133103904D01*
X125460523Y-132865809D01*
X125412904Y-132770571D01*
X125365285Y-132722952D01*
X125270047Y-132675333D01*
X125079571Y-132675333D01*
X124984333Y-132722952D01*
X124936714Y-132770571D01*
X124889095Y-132865809D01*
X126317666Y-132627714D02*
X126317666Y-133294380D01*
X126079571Y-132246761D02*
X125841476Y-132961047D01*
X126460523Y-132961047D01*
X127365285Y-133294380D02*
X126793857Y-133294380D01*
X127079571Y-133294380D02*
X127079571Y-132294380D01*
X126984333Y-132437238D01*
X126889095Y-132532476D01*
X126793857Y-132580095D01*
X127698619Y-132294380D02*
X128365285Y-132294380D01*
X127936714Y-133294380D01*
X128651000Y-132294380D02*
X129270047Y-132294380D01*
X128936714Y-132675333D01*
X129079571Y-132675333D01*
X129174809Y-132722952D01*
X129222428Y-132770571D01*
X129270047Y-132865809D01*
X129270047Y-133103904D01*
X129222428Y-133199142D01*
X129174809Y-133246761D01*
X129079571Y-133294380D01*
X128793857Y-133294380D01*
X128698619Y-133246761D01*
X128651000Y-133199142D01*
X129603380Y-132294380D02*
X130270047Y-132294380D01*
X129841476Y-133294380D01*
X130651000Y-132913428D02*
X131412904Y-132913428D01*
X132412904Y-133294380D02*
X131841476Y-133294380D01*
X132127190Y-133294380D02*
X132127190Y-132294380D01*
X132031952Y-132437238D01*
X131936714Y-132532476D01*
X131841476Y-132580095D01*
X135001000Y-126452380D02*
X135001000Y-126690476D01*
X134762904Y-126595238D02*
X135001000Y-126690476D01*
X135239095Y-126595238D01*
X134858142Y-126880952D02*
X135001000Y-126690476D01*
X135143857Y-126880952D01*
%TO.C,R1*%
X119451380Y-87923666D02*
X118975190Y-88257000D01*
X119451380Y-88495095D02*
X118451380Y-88495095D01*
X118451380Y-88114142D01*
X118499000Y-88018904D01*
X118546619Y-87971285D01*
X118641857Y-87923666D01*
X118784714Y-87923666D01*
X118879952Y-87971285D01*
X118927571Y-88018904D01*
X118975190Y-88114142D01*
X118975190Y-88495095D01*
X119451380Y-86971285D02*
X119451380Y-87542714D01*
X119451380Y-87257000D02*
X118451380Y-87257000D01*
X118594238Y-87352238D01*
X118689476Y-87447476D01*
X118737095Y-87542714D01*
%TO.C,R2*%
X119578380Y-100496666D02*
X119102190Y-100830000D01*
X119578380Y-101068095D02*
X118578380Y-101068095D01*
X118578380Y-100687142D01*
X118626000Y-100591904D01*
X118673619Y-100544285D01*
X118768857Y-100496666D01*
X118911714Y-100496666D01*
X119006952Y-100544285D01*
X119054571Y-100591904D01*
X119102190Y-100687142D01*
X119102190Y-101068095D01*
X118673619Y-100115714D02*
X118626000Y-100068095D01*
X118578380Y-99972857D01*
X118578380Y-99734761D01*
X118626000Y-99639523D01*
X118673619Y-99591904D01*
X118768857Y-99544285D01*
X118864095Y-99544285D01*
X119006952Y-99591904D01*
X119578380Y-100163333D01*
X119578380Y-99544285D01*
%TO.C,R3*%
X119451380Y-62396666D02*
X118975190Y-62730000D01*
X119451380Y-62968095D02*
X118451380Y-62968095D01*
X118451380Y-62587142D01*
X118499000Y-62491904D01*
X118546619Y-62444285D01*
X118641857Y-62396666D01*
X118784714Y-62396666D01*
X118879952Y-62444285D01*
X118927571Y-62491904D01*
X118975190Y-62587142D01*
X118975190Y-62968095D01*
X118451380Y-62063333D02*
X118451380Y-61444285D01*
X118832333Y-61777619D01*
X118832333Y-61634761D01*
X118879952Y-61539523D01*
X118927571Y-61491904D01*
X119022809Y-61444285D01*
X119260904Y-61444285D01*
X119356142Y-61491904D01*
X119403761Y-61539523D01*
X119451380Y-61634761D01*
X119451380Y-61920476D01*
X119403761Y-62015714D01*
X119356142Y-62063333D01*
%TO.C,R4*%
X119451380Y-74715666D02*
X118975190Y-75049000D01*
X119451380Y-75287095D02*
X118451380Y-75287095D01*
X118451380Y-74906142D01*
X118499000Y-74810904D01*
X118546619Y-74763285D01*
X118641857Y-74715666D01*
X118784714Y-74715666D01*
X118879952Y-74763285D01*
X118927571Y-74810904D01*
X118975190Y-74906142D01*
X118975190Y-75287095D01*
X118784714Y-73858523D02*
X119451380Y-73858523D01*
X118403761Y-74096619D02*
X119118047Y-74334714D01*
X119118047Y-73715666D01*
%TO.C,R5*%
X119578380Y-113196666D02*
X119102190Y-113530000D01*
X119578380Y-113768095D02*
X118578380Y-113768095D01*
X118578380Y-113387142D01*
X118626000Y-113291904D01*
X118673619Y-113244285D01*
X118768857Y-113196666D01*
X118911714Y-113196666D01*
X119006952Y-113244285D01*
X119054571Y-113291904D01*
X119102190Y-113387142D01*
X119102190Y-113768095D01*
X118578380Y-112291904D02*
X118578380Y-112768095D01*
X119054571Y-112815714D01*
X119006952Y-112768095D01*
X118959333Y-112672857D01*
X118959333Y-112434761D01*
X119006952Y-112339523D01*
X119054571Y-112291904D01*
X119149809Y-112244285D01*
X119387904Y-112244285D01*
X119483142Y-112291904D01*
X119530761Y-112339523D01*
X119578380Y-112434761D01*
X119578380Y-112672857D01*
X119530761Y-112768095D01*
X119483142Y-112815714D01*
%TO.C,R6*%
X148153380Y-73699666D02*
X147677190Y-74033000D01*
X148153380Y-74271095D02*
X147153380Y-74271095D01*
X147153380Y-73890142D01*
X147201000Y-73794904D01*
X147248619Y-73747285D01*
X147343857Y-73699666D01*
X147486714Y-73699666D01*
X147581952Y-73747285D01*
X147629571Y-73794904D01*
X147677190Y-73890142D01*
X147677190Y-74271095D01*
X147153380Y-72842523D02*
X147153380Y-73033000D01*
X147201000Y-73128238D01*
X147248619Y-73175857D01*
X147391476Y-73271095D01*
X147581952Y-73318714D01*
X147962904Y-73318714D01*
X148058142Y-73271095D01*
X148105761Y-73223476D01*
X148153380Y-73128238D01*
X148153380Y-72937761D01*
X148105761Y-72842523D01*
X148058142Y-72794904D01*
X147962904Y-72747285D01*
X147724809Y-72747285D01*
X147629571Y-72794904D01*
X147581952Y-72842523D01*
X147534333Y-72937761D01*
X147534333Y-73128238D01*
X147581952Y-73223476D01*
X147629571Y-73271095D01*
X147724809Y-73318714D01*
%TO.C,R7*%
X148153380Y-86272666D02*
X147677190Y-86606000D01*
X148153380Y-86844095D02*
X147153380Y-86844095D01*
X147153380Y-86463142D01*
X147201000Y-86367904D01*
X147248619Y-86320285D01*
X147343857Y-86272666D01*
X147486714Y-86272666D01*
X147581952Y-86320285D01*
X147629571Y-86367904D01*
X147677190Y-86463142D01*
X147677190Y-86844095D01*
X147153380Y-85939333D02*
X147153380Y-85272666D01*
X148153380Y-85701238D01*
%TO.C,R8*%
X148153380Y-99226666D02*
X147677190Y-99560000D01*
X148153380Y-99798095D02*
X147153380Y-99798095D01*
X147153380Y-99417142D01*
X147201000Y-99321904D01*
X147248619Y-99274285D01*
X147343857Y-99226666D01*
X147486714Y-99226666D01*
X147581952Y-99274285D01*
X147629571Y-99321904D01*
X147677190Y-99417142D01*
X147677190Y-99798095D01*
X147581952Y-98655238D02*
X147534333Y-98750476D01*
X147486714Y-98798095D01*
X147391476Y-98845714D01*
X147343857Y-98845714D01*
X147248619Y-98798095D01*
X147201000Y-98750476D01*
X147153380Y-98655238D01*
X147153380Y-98464761D01*
X147201000Y-98369523D01*
X147248619Y-98321904D01*
X147343857Y-98274285D01*
X147391476Y-98274285D01*
X147486714Y-98321904D01*
X147534333Y-98369523D01*
X147581952Y-98464761D01*
X147581952Y-98655238D01*
X147629571Y-98750476D01*
X147677190Y-98798095D01*
X147772428Y-98845714D01*
X147962904Y-98845714D01*
X148058142Y-98798095D01*
X148105761Y-98750476D01*
X148153380Y-98655238D01*
X148153380Y-98464761D01*
X148105761Y-98369523D01*
X148058142Y-98321904D01*
X147962904Y-98274285D01*
X147772428Y-98274285D01*
X147677190Y-98321904D01*
X147629571Y-98369523D01*
X147581952Y-98464761D01*
%TO.C,R9*%
X148153380Y-111672666D02*
X147677190Y-112006000D01*
X148153380Y-112244095D02*
X147153380Y-112244095D01*
X147153380Y-111863142D01*
X147201000Y-111767904D01*
X147248619Y-111720285D01*
X147343857Y-111672666D01*
X147486714Y-111672666D01*
X147581952Y-111720285D01*
X147629571Y-111767904D01*
X147677190Y-111863142D01*
X147677190Y-112244095D01*
X148153380Y-111196476D02*
X148153380Y-111006000D01*
X148105761Y-110910761D01*
X148058142Y-110863142D01*
X147915285Y-110767904D01*
X147724809Y-110720285D01*
X147343857Y-110720285D01*
X147248619Y-110767904D01*
X147201000Y-110815523D01*
X147153380Y-110910761D01*
X147153380Y-111101238D01*
X147201000Y-111196476D01*
X147248619Y-111244095D01*
X147343857Y-111291714D01*
X147581952Y-111291714D01*
X147677190Y-111244095D01*
X147724809Y-111196476D01*
X147772428Y-111101238D01*
X147772428Y-110910761D01*
X147724809Y-110815523D01*
X147677190Y-110767904D01*
X147581952Y-110720285D01*
%TO.C,R10*%
X147899380Y-114815857D02*
X147423190Y-115149190D01*
X147899380Y-115387285D02*
X146899380Y-115387285D01*
X146899380Y-115006333D01*
X146947000Y-114911095D01*
X146994619Y-114863476D01*
X147089857Y-114815857D01*
X147232714Y-114815857D01*
X147327952Y-114863476D01*
X147375571Y-114911095D01*
X147423190Y-115006333D01*
X147423190Y-115387285D01*
X147899380Y-113863476D02*
X147899380Y-114434904D01*
X147899380Y-114149190D02*
X146899380Y-114149190D01*
X147042238Y-114244428D01*
X147137476Y-114339666D01*
X147185095Y-114434904D01*
X146899380Y-113244428D02*
X146899380Y-113149190D01*
X146947000Y-113053952D01*
X146994619Y-113006333D01*
X147089857Y-112958714D01*
X147280333Y-112911095D01*
X147518428Y-112911095D01*
X147708904Y-112958714D01*
X147804142Y-113006333D01*
X147851761Y-113053952D01*
X147899380Y-113149190D01*
X147899380Y-113244428D01*
X147851761Y-113339666D01*
X147804142Y-113387285D01*
X147708904Y-113434904D01*
X147518428Y-113482523D01*
X147280333Y-113482523D01*
X147089857Y-113434904D01*
X146994619Y-113387285D01*
X146947000Y-113339666D01*
X146899380Y-113244428D01*
%TO.C,R11*%
X160266142Y-127071380D02*
X159932809Y-126595190D01*
X159694714Y-127071380D02*
X159694714Y-126071380D01*
X160075666Y-126071380D01*
X160170904Y-126119000D01*
X160218523Y-126166619D01*
X160266142Y-126261857D01*
X160266142Y-126404714D01*
X160218523Y-126499952D01*
X160170904Y-126547571D01*
X160075666Y-126595190D01*
X159694714Y-126595190D01*
X161218523Y-127071380D02*
X160647095Y-127071380D01*
X160932809Y-127071380D02*
X160932809Y-126071380D01*
X160837571Y-126214238D01*
X160742333Y-126309476D01*
X160647095Y-126357095D01*
X162170904Y-127071380D02*
X161599476Y-127071380D01*
X161885190Y-127071380D02*
X161885190Y-126071380D01*
X161789952Y-126214238D01*
X161694714Y-126309476D01*
X161599476Y-126357095D01*
%TO.C,R12*%
X155059142Y-127071380D02*
X154725809Y-126595190D01*
X154487714Y-127071380D02*
X154487714Y-126071380D01*
X154868666Y-126071380D01*
X154963904Y-126119000D01*
X155011523Y-126166619D01*
X155059142Y-126261857D01*
X155059142Y-126404714D01*
X155011523Y-126499952D01*
X154963904Y-126547571D01*
X154868666Y-126595190D01*
X154487714Y-126595190D01*
X156011523Y-127071380D02*
X155440095Y-127071380D01*
X155725809Y-127071380D02*
X155725809Y-126071380D01*
X155630571Y-126214238D01*
X155535333Y-126309476D01*
X155440095Y-126357095D01*
X156392476Y-126166619D02*
X156440095Y-126119000D01*
X156535333Y-126071380D01*
X156773428Y-126071380D01*
X156868666Y-126119000D01*
X156916285Y-126166619D01*
X156963904Y-126261857D01*
X156963904Y-126357095D01*
X156916285Y-126499952D01*
X156344857Y-127071380D01*
X156963904Y-127071380D01*
%TO.C,R13*%
X149979142Y-127071380D02*
X149645809Y-126595190D01*
X149407714Y-127071380D02*
X149407714Y-126071380D01*
X149788666Y-126071380D01*
X149883904Y-126119000D01*
X149931523Y-126166619D01*
X149979142Y-126261857D01*
X149979142Y-126404714D01*
X149931523Y-126499952D01*
X149883904Y-126547571D01*
X149788666Y-126595190D01*
X149407714Y-126595190D01*
X150931523Y-127071380D02*
X150360095Y-127071380D01*
X150645809Y-127071380D02*
X150645809Y-126071380D01*
X150550571Y-126214238D01*
X150455333Y-126309476D01*
X150360095Y-126357095D01*
X151264857Y-126071380D02*
X151883904Y-126071380D01*
X151550571Y-126452333D01*
X151693428Y-126452333D01*
X151788666Y-126499952D01*
X151836285Y-126547571D01*
X151883904Y-126642809D01*
X151883904Y-126880904D01*
X151836285Y-126976142D01*
X151788666Y-127023761D01*
X151693428Y-127071380D01*
X151407714Y-127071380D01*
X151312476Y-127023761D01*
X151264857Y-126976142D01*
%TD*%
M02*
